# Blender 3.5.0
# www.blender.org
mtllib Takenoko.mtl
o takenoko1
v -0.887037 0.146007 -0.559241
v -0.067457 4.464498 -0.035354
v -0.512131 0.146007 -0.934147
v -0.000000 0.146007 -1.071372
v -0.000000 4.464498 -0.074301
v 0.512131 0.146007 -0.934147
v 0.887036 0.146007 -0.559241
v 0.067457 4.464498 -0.035354
v -0.095371 4.299232 -0.055062
v -0.271067 3.886460 -0.156500
v -0.497828 3.286655 -0.279512
v -0.935462 0.550569 -0.550657
v -0.055063 4.299232 -0.095371
v -0.156501 3.886460 -0.271066
v -0.287421 3.286655 -0.489919
v -0.540089 0.550569 -0.946030
v -0.000000 4.299232 -0.110125
v -0.000000 3.886460 -0.313000
v -0.000000 3.286655 -0.566933
v -0.000000 0.550569 -1.090746
v 0.055062 4.299232 -0.095371
v 0.156500 3.886460 -0.271066
v 0.287421 3.286655 -0.489919
v 0.540089 0.550569 -0.946030
v 0.095371 4.299232 -0.055062
v 0.271066 3.886460 -0.156500
v 0.497828 3.286655 -0.279512
v 0.935461 0.550569 -0.550657
v -0.937887 0.935834 -0.534674
v -0.541489 0.935834 -0.931071
v -0.000000 0.935834 -1.076163
v 0.541489 0.935834 -0.931071
v 0.937886 0.935834 -0.534674
v -0.881291 1.544859 -0.497019
v -0.508814 1.544859 -0.869496
v -0.000000 1.544859 -1.005832
v 0.508813 1.544859 -0.869496
v 0.881290 1.544859 -0.497019
v -0.796157 2.066309 -0.459661
v -0.459662 2.066309 -0.796157
v -0.000000 2.066309 -0.919322
v 0.459661 2.066309 -0.796157
v 0.796157 2.066309 -0.459661
v -0.667929 2.673753 -0.381871
v -0.385629 2.673753 -0.664171
v -0.000000 2.673753 -0.767500
v 0.385629 2.673753 -0.664171
v 0.667929 2.673753 -0.381871
v -0.903322 0.435305 -0.552009
v -0.521512 0.435285 -0.933788
v -0.000000 0.435278 -1.073520
v 0.521512 0.435285 -0.933788
v 0.903322 0.435305 -0.552009
v -0.093457 4.734478 0.000000
v -0.000000 4.901044 0.000000
v 0.093457 4.734478 0.000000
v -1.024262 0.146007 0.000000
v -0.077892 4.464498 0.000000
v -0.887037 0.146007 0.559241
v -0.067457 4.464498 0.035355
v -0.512131 0.146007 0.934147
v -0.038946 4.464498 0.000000
v 0.000000 0.146007 1.071371
v -0.000000 4.464498 0.074301
v 0.512131 0.146007 0.934146
v 0.038946 4.464498 0.000000
v 0.887036 0.146007 0.559241
v 0.067457 4.464498 0.035355
v 1.024261 0.146007 -0.000000
v 0.077892 4.464498 0.000000
v -1.080178 0.550569 0.000000
v -0.574843 3.286655 0.000000
v -0.313001 3.886460 0.000000
v -0.110125 4.299232 0.000000
v -0.095371 4.299232 0.055063
v -0.271067 3.886460 0.156501
v -0.497828 3.286655 0.279512
v -0.935462 0.550569 0.550657
v -0.055063 4.299232 0.095371
v -0.156500 3.886460 0.271067
v -0.287421 3.286655 0.489919
v -0.540089 0.550569 0.946030
v -0.000000 4.299232 0.110125
v -0.000000 3.886460 0.313001
v -0.000000 3.286655 0.566934
v 0.000000 0.550569 1.090746
v 0.055062 4.299232 0.095371
v 0.156500 3.886460 0.271067
v 0.287421 3.286655 0.489919
v 0.540089 0.550569 0.946030
v 0.095371 4.299232 0.055063
v 0.271066 3.886460 0.156501
v 0.497828 3.286655 0.279512
v 0.935461 0.550569 0.550657
v 0.313001 3.886460 0.000000
v 0.574842 3.286655 0.000000
v 1.080178 0.550569 -0.000000
v -1.082978 0.935834 0.000000
v -0.937887 0.935834 0.534674
v -0.541489 0.935834 0.931071
v 0.000000 0.935834 1.076163
v 0.541489 0.935834 0.931071
v 0.937887 0.935834 0.534674
v 1.082978 0.935834 -0.000000
v -0.881291 1.544859 0.497019
v -0.508813 1.544859 0.869497
v 0.000000 1.544859 1.005832
v 0.508813 1.544859 0.869496
v 0.881290 1.544859 0.497019
v 1.017626 1.544859 -0.000000
v -1.017627 1.544859 0.000000
v -0.919323 2.066309 0.000000
v -0.796157 2.066309 0.459661
v -0.459661 2.066309 0.796157
v 0.000000 2.066309 0.919323
v 0.459661 2.066309 0.796157
v 0.796157 2.066309 0.459661
v 0.919322 2.066309 -0.000000
v -0.667929 2.673753 0.381872
v -0.385629 2.673753 0.664171
v -0.000000 2.673753 0.767500
v 0.385629 2.673753 0.664171
v 0.667929 2.673753 0.381871
v 0.771257 2.673753 0.000000
v -0.771258 2.673753 0.000000
v 0.110125 4.299232 0.000000
v -0.903322 0.435305 0.552009
v -0.521512 0.435285 0.933788
v 0.000000 0.435278 1.073520
v 0.521512 0.435285 0.933788
v 0.903322 0.435305 0.552009
v 1.043093 0.435318 -0.000000
v -1.043093 0.435318 0.000000
v -0.000000 0.000110 0.000000
v -0.363394 0.000110 -0.662845
v 0.363394 0.000110 0.662845
v -0.726788 0.000110 0.000000
v 0.726788 0.000110 -0.000000
v 0.363394 0.000110 -0.662845
v -0.363394 0.000110 0.662845
v 0.000000 0.000110 0.778335
v -0.640744 0.000110 -0.391837
v 0.640744 0.000110 0.391837
v -0.640744 0.000110 0.391837
v -0.000000 0.000110 -0.778335
v 0.640744 0.000110 -0.391837
vn -0.9447 0.3280 -0.0000
vn -0.1200 0.1229 -0.9851
vn -0.7794 0.3901 -0.4902
vn -0.5459 0.8379 -0.0000
vn -0.4874 0.3930 -0.7797
vn -0.0000 0.3882 -0.9216
vn -0.0000 0.3353 -0.9421
vn 0.4680 0.3537 -0.8099
vn 0.1842 0.3070 -0.9337
vn 0.8167 0.3306 -0.4731
vn 0.9447 0.3280 -0.0000
vn 0.8668 -0.1090 -0.4867
vn 0.9822 -0.1878 -0.0000
vn 0.8577 -0.1359 -0.4959
vn 0.9779 0.2092 -0.0000
vn 0.8329 0.2722 0.4818
vn 0.8464 0.2061 0.4911
vn 0.4961 0.1396 -0.8569
vn 0.8656 0.0613 -0.4970
vn 0.5001 0.0723 -0.8630
vn -0.0000 0.3485 -0.9373
vn 0.4808 0.2746 -0.8327
vn -0.0000 0.2754 -0.9613
vn -0.7868 0.4166 -0.4554
vn -0.4692 0.3487 -0.8113
vn -0.8107 0.3493 -0.4698
vn 0.4545 0.4146 -0.7884
vn 0.7868 0.4166 -0.4554
vn 0.5029 -0.0688 -0.8616
vn 0.4935 -0.0935 -0.8647
vn 0.4808 0.2746 0.8327
vn 0.4886 0.2030 0.8486
vn -0.0000 0.1387 -0.9903
vn -0.0000 0.0758 -0.9971
vn 0.8107 0.3493 0.4698
vn 0.9628 0.2703 -0.0000
vn 0.9366 0.3503 -0.0000
vn -0.0000 -0.0544 -0.9985
vn -0.0000 -0.0787 -0.9969
vn 0.4886 0.2030 -0.8486
vn -0.0000 0.2019 -0.9794
vn -0.5001 0.0723 -0.8630
vn -0.4961 0.1396 -0.8569
vn 0.8107 0.3493 -0.4698
vn 0.9083 0.4182 -0.0000
vn -0.0000 0.4139 -0.9103
vn -0.4935 -0.0935 -0.8647
vn -0.4886 0.2030 -0.8486
vn -0.4808 0.2746 -0.8327
vn -0.8656 0.0613 -0.4970
vn -0.8573 0.1423 -0.4948
vn 0.4692 0.3487 -0.8113
vn 0.8329 0.2722 -0.4818
vn -0.4545 0.4146 -0.7884
vn -0.8577 -0.1359 -0.4959
vn -0.5029 -0.0688 -0.8616
vn -0.8464 0.2061 -0.4911
vn -0.8329 0.2722 -0.4818
vn -0.9988 0.0500 -0.0000
vn -0.9822 -0.1878 -0.0000
vn -0.8668 -0.1090 -0.4867
vn -0.8329 0.2722 0.4818
vn -0.9779 0.2092 -0.0000
vn -0.8464 0.2061 0.4911
vn -0.9894 0.1451 -0.0000
vn -0.4692 0.3487 0.8113
vn -0.7868 0.4166 0.4554
vn -0.8107 0.3493 0.4698
vn -0.9083 0.4182 -0.0000
vn 0.8464 0.2061 -0.4911
vn 0.8573 0.1423 -0.4948
vn -0.9628 0.2703 -0.0000
vn -0.9883 -0.1527 -0.0000
vn 0.9883 -0.1527 -0.0000
vn -0.8543 -0.5197 -0.0000
vn -0.7464 -0.5078 -0.4302
vn -0.4310 -0.5034 -0.7489
vn -0.0000 -0.4941 -0.8694
vn 0.4310 -0.5034 -0.7489
vn 0.7464 -0.5078 -0.4302
vn 0.8543 -0.5197 -0.0000
vn 0.9988 0.0500 -0.0000
vn -0.9366 0.3503 -0.0000
vn 0.3359 0.9419 -0.0000
vn 0.1174 0.9931 -0.0000
vn -0.9976 0.0690 -0.0000
vn -0.1173 0.9931 -0.0000
vn -0.0000 1.0000 -0.0000
vn 0.9976 0.0690 -0.0000
vn -0.1200 0.1229 0.9851
vn -0.7794 0.3901 0.4902
vn -0.4874 0.3930 0.7797
vn -0.0000 0.3882 0.9216
vn 0.4680 0.3537 0.8099
vn -0.0000 0.3353 0.9421
vn 0.1842 0.3070 0.9337
vn 0.8167 0.3306 0.4731
vn 0.8668 -0.1090 0.4867
vn 0.8577 -0.1359 0.4959
vn 0.4961 0.1396 0.8569
vn 0.8656 0.0613 0.4970
vn 0.8573 0.1423 0.4948
vn -0.0000 0.3485 0.9373
vn 0.4692 0.3487 0.8113
vn 0.7868 0.4166 0.4554
vn 0.4545 0.4146 0.7884
vn 0.5029 -0.0688 0.8616
vn 0.4935 -0.0935 0.8647
vn -0.0000 0.1387 0.9903
vn 0.5001 0.0723 0.8630
vn -0.0000 -0.0544 0.9985
vn -0.0000 -0.0787 0.9969
vn -0.0000 0.2754 0.9613
vn -0.5001 0.0723 0.8630
vn -0.4961 0.1396 0.8569
vn -0.0000 0.4139 0.9103
vn -0.4935 -0.0935 0.8647
vn -0.5029 -0.0688 0.8616
vn -0.4886 0.2030 0.8486
vn -0.4808 0.2746 0.8327
vn -0.8656 0.0613 0.4970
vn -0.8573 0.1423 0.4948
vn -0.4545 0.4146 0.7884
vn -0.8577 -0.1359 0.4959
vn -0.8668 -0.1090 0.4867
vn -0.0000 0.2019 0.9794
vn -0.0000 0.0758 0.9971
vn -0.7464 -0.5078 0.4302
vn -0.4310 -0.5034 0.7489
vn 0.4310 -0.5034 0.7489
vn -0.0000 -0.4941 0.8694
vn 0.7464 -0.5078 0.4302
vn 0.9894 0.1451 -0.0000
vn 0.1311 -0.9682 -0.2129
vn 0.2318 -0.9645 -0.1262
vn -0.0000 -1.0000 -0.0000
vn -0.0000 -0.9645 -0.2641
vn -0.1311 -0.9682 0.2129
vn -0.2318 -0.9645 0.1262
vn 0.2318 -0.9645 0.1262
vn 0.1311 -0.9682 0.2129
vn -0.2318 -0.9645 -0.1262
vn -0.2551 -0.9669 -0.0000
vn -0.0000 -0.9645 0.2641
vn 0.2551 -0.9669 -0.0000
vn -0.1311 -0.9682 -0.2129
vt 0.833585 0.030416
vt 0.835194 0.977274
vt 0.662227 0.030422
vt 0.501680 0.030422
vt 0.501680 0.977274
vt 0.341134 0.030422
vt 0.169776 0.030416
vt 0.168167 0.977274
vt 0.835194 0.938938
vt 0.835194 0.843157
vt 0.835194 0.708640
vt 0.835194 0.125564
vt 0.663058 0.938938
vt 0.663058 0.843157
vt 0.663058 0.708640
vt 0.663058 0.125564
vt 0.501680 0.938938
vt 0.501680 0.843157
vt 0.501680 0.708640
vt 0.501680 0.125564
vt 0.340303 0.938938
vt 0.340303 0.843157
vt 0.340303 0.708640
vt 0.340303 0.125564
vt 0.168167 0.938938
vt 0.168167 0.843157
vt 0.168167 0.708640
vt 0.168167 0.125564
vt 0.835194 0.205478
vt 0.663058 0.205478
vt 0.501680 0.205478
vt 0.340303 0.205478
vt 0.168167 0.205478
vt 0.835194 0.333118
vt 0.663058 0.333118
vt 0.501680 0.333118
vt 0.340303 0.333118
vt 0.168167 0.333118
vt 0.835194 0.444457
vt 0.663058 0.444457
vt 0.501680 0.444457
vt 0.340303 0.444457
vt 0.168167 0.444457
vt 0.835194 0.574776
vt 0.663058 0.574776
vt 0.501680 0.574776
vt 0.340303 0.574776
vt 0.168167 0.574776
vt 0.835194 0.101248
vt 0.663058 0.101248
vt 0.501680 0.101248
vt 0.340303 0.101248
vt 0.168167 0.101248
vt 0.663058 0.977274
vt 0.995925 0.977274
vt 0.835194 0.977274
vt 0.340303 0.977274
vt 0.663058 0.977274
vt 0.501680 0.977274
vt 0.007435 0.977274
vt 0.340303 0.977274
vt 0.168167 0.977274
vt 0.995542 0.030382
vt 0.995925 0.977274
vt 0.833585 0.030416
vt 0.835194 0.977274
vt 0.662227 0.030422
vt 0.663058 0.977274
vt 0.501680 0.030422
vt 0.501680 0.977274
vt 0.341134 0.030422
vt 0.340303 0.977274
vt 0.169776 0.030416
vt 0.168167 0.977274
vt 0.007819 0.030382
vt 0.007435 0.977274
vt 0.995925 0.125564
vt 0.995925 0.708640
vt 0.995925 0.843157
vt 0.995925 0.938938
vt 0.835194 0.938938
vt 0.835194 0.843157
vt 0.835194 0.708640
vt 0.835194 0.125564
vt 0.663058 0.938938
vt 0.663058 0.843157
vt 0.663058 0.708640
vt 0.663058 0.125564
vt 0.501680 0.938938
vt 0.501680 0.843157
vt 0.501680 0.708640
vt 0.501680 0.125564
vt 0.340303 0.938938
vt 0.340303 0.843157
vt 0.340303 0.708640
vt 0.340303 0.125564
vt 0.168167 0.938938
vt 0.168167 0.843157
vt 0.168167 0.708640
vt 0.168167 0.125564
vt 0.007435 0.843157
vt 0.007435 0.708640
vt 0.007435 0.125564
vt 0.995925 0.205478
vt 0.835194 0.205478
vt 0.663058 0.205478
vt 0.501680 0.205478
vt 0.340303 0.205478
vt 0.168167 0.205478
vt 0.007435 0.205478
vt 0.835194 0.333118
vt 0.663058 0.333118
vt 0.501680 0.333118
vt 0.340303 0.333118
vt 0.168167 0.333118
vt 0.007435 0.333118
vt 0.995925 0.333118
vt 0.995925 0.444457
vt 0.835194 0.444457
vt 0.663058 0.444457
vt 0.501680 0.444457
vt 0.340303 0.444457
vt 0.168167 0.444457
vt 0.007435 0.444457
vt 0.835194 0.574776
vt 0.663058 0.574776
vt 0.501680 0.574776
vt 0.340303 0.574776
vt 0.168167 0.574776
vt 0.007435 0.574776
vt 0.995925 0.574776
vt 0.007435 0.938938
vt 0.835194 0.101248
vt 0.663058 0.101248
vt 0.501680 0.101248
vt 0.340303 0.101248
vt 0.168167 0.101248
vt 0.007435 0.101248
vt 0.995925 0.101248
vt 0.497220 0.049961
vt 0.511914 0.001687
vt 0.664389 0.000000
vt 0.338972 0.000000
vt 0.482526 0.098235
vt 0.463313 0.015261
vt 1.000000 0.000000
vt 0.531127 0.084661
vt 0.003360 0.000000
vt 0.338972 0.000000
vt 0.545821 0.036388
vt 0.664389 0.000000
vt 0.448619 0.063535
vt 0.501680 0.000000
vt 0.460059 0.086273
vt 0.486036 0.001089
vt 0.832194 0.000000
vt 0.508404 0.098834
vt 0.171166 0.000000
vt 0.448619 0.037649
vt 0.832194 0.000000
vt 0.534381 0.013650
vt 0.501680 0.000000
vt 0.545821 0.062273
vt 0.171166 0.000000
s 1
usemtl takenoko_material
f 74/80/1 2/2/2 9/9/3
f 9/9/3 62/68/4 13/13/5
f 13/13/5 5/5/6 17/17/7
f 5/5/6 21/21/8 17/17/7
f 21/21/8 8/8/9 25/25/10
f 8/8/9 126/132/11 25/25/10
f 28/28/12 132/138/13 53/53/14
f 118/124/15 123/129/16 117/123/17
f 37/37/18 33/33/19 32/32/20
f 19/19/21 47/47/22 46/46/23
f 10/10/24 15/15/25 11/11/26
f 22/22/27 25/25/10 26/26/28
f 24/24/29 53/53/14 52/52/30
f 117/123/17 122/128/31 116/122/32
f 36/36/33 32/32/20 31/31/34
f 93/99/35 124/130/36 96/102/37
f 20/20/38 52/52/30 51/51/39
f 46/46/23 42/42/40 41/41/41
f 36/36/33 30/30/42 35/35/43
f 27/27/44 95/101/45 96/102/37
f 18/18/46 21/21/8 22/22/27
f 50/50/47 20/20/38 51/51/39
f 46/46/23 40/40/48 45/45/49
f 35/35/43 29/29/50 34/34/51
f 23/23/52 48/48/53 47/47/22
f 22/22/27 19/19/21 18/18/46
f 14/14/54 17/17/7 18/18/46
f 49/49/55 16/16/56 50/50/47
f 45/45/49 39/39/57 44/44/58
f 98/104/59 34/34/51 29/29/50
f 45/45/49 19/19/21 46/46/23
f 14/14/54 19/19/21 15/15/25
f 9/9/3 14/14/54 10/10/24
f 133/139/60 12/12/61 49/49/55
f 119/125/62 112/118/63 113/119/64
f 112/118/63 34/34/51 111/117/65
f 81/87/66 76/82/67 77/83/68
f 73/79/69 9/9/3 10/10/24
f 39/39/57 35/35/43 34/34/51
f 40/40/48 36/36/33 35/35/43
f 42/42/40 36/36/33 41/41/41
f 43/43/70 37/37/18 42/42/40
f 118/124/15 38/38/71 43/43/70
f 44/44/58 112/118/63 125/131/72
f 71/77/73 29/29/50 12/12/61
f 12/12/61 30/30/42 16/16/56
f 16/16/56 31/31/34 20/20/38
f 31/31/34 24/24/29 20/20/38
f 32/32/20 28/28/12 24/24/29
f 33/33/19 97/103/74 28/28/12
f 25/25/10 95/101/45 26/26/28
f 57/63/75 49/49/55 1/1/76
f 1/1/76 50/50/47 3/3/77
f 3/3/77 51/51/39 4/4/78
f 51/51/39 6/6/79 4/4/78
f 52/52/30 7/7/80 6/6/79
f 53/53/14 69/75/81 7/7/80
f 38/38/71 104/110/82 33/33/19
f 77/83/68 73/79/69 72/78/83
f 8/8/9 66/72/84 56/62/85
f 2/2/2 58/64/86 54/56/87
f 5/5/6 62/68/4 55/59/88
f 70/76/89 8/8/9 56/60/85
f 66/72/84 5/5/6 55/57/88
f 62/68/4 2/2/2 54/54/87
f 74/80/1 60/66/90 58/64/86
f 75/81/91 62/68/4 60/66/90
f 79/85/92 64/70/93 62/68/4
f 87/93/94 64/70/93 83/89/95
f 87/93/94 68/74/96 66/72/84
f 126/132/11 68/74/96 91/97/97
f 132/138/13 94/100/98 131/137/99
f 27/27/44 124/130/36 48/48/53
f 108/114/100 103/109/101 109/115/102
f 85/91/103 122/128/31 89/95/104
f 26/26/28 23/23/52 22/22/27
f 92/98/105 87/93/94 88/94/106
f 131/137/99 90/96/107 130/136/108
f 107/113/109 102/108/110 108/114/100
f 43/43/70 47/47/22 48/48/53
f 130/136/108 86/92/111 129/135/112
f 121/127/113 116/122/32 122/128/31
f 100/106/114 107/113/109 106/112/115
f 93/99/35 95/101/45 92/98/105
f 84/90/116 87/93/94 83/89/95
f 128/134/117 86/92/111 82/88/118
f 114/120/119 121/127/113 120/126/120
f 99/105/121 106/112/115 105/111/122
f 123/129/16 89/95/104 122/128/31
f 88/94/106 85/91/103 89/95/104
f 84/90/116 79/85/92 80/86/123
f 127/133/124 82/88/118 78/84/125
f 113/119/64 120/126/120 119/125/62
f 98/104/59 105/111/122 111/117/65
f 120/126/120 85/91/103 81/87/66
f 85/91/103 80/86/123 81/87/66
f 80/86/123 75/81/91 76/82/67
f 133/139/60 78/84/125 71/77/73
f 105/111/122 112/118/63 111/117/65
f 15/15/25 44/44/58 11/11/26
f 73/79/69 11/11/26 72/78/83
f 73/79/69 75/81/91 74/80/1
f 113/119/64 106/112/115 114/120/119
f 114/120/119 107/113/109 115/121/126
f 107/113/109 116/122/32 115/121/126
f 108/114/100 117/123/17 116/122/32
f 109/115/102 118/124/15 117/123/17
f 11/11/26 125/131/72 72/78/83
f 71/77/73 99/105/121 98/104/59
f 78/84/125 100/106/114 99/105/121
f 82/88/118 101/107/127 100/106/114
f 90/96/107 101/107/127 86/92/111
f 94/100/98 102/108/110 90/96/107
f 97/103/74 103/109/101 94/100/98
f 92/98/105 126/132/11 91/97/97
f 57/63/75 127/133/124 133/139/60
f 59/65/128 128/134/117 127/133/124
f 61/67/129 129/135/112 128/134/117
f 65/71/130 129/135/112 63/69/131
f 67/73/132 130/136/108 65/71/130
f 69/75/81 131/137/99 67/73/132
f 109/115/102 104/110/82 110/116/133
f 77/83/68 125/131/72 119/125/62
f 68/74/96 56/61/85 66/72/84
f 60/66/90 54/55/87 58/64/86
f 64/70/93 55/58/88 62/68/4
f 70/76/89 56/62/85 68/74/96
f 66/72/84 55/59/88 64/70/93
f 62/68/4 54/56/87 60/66/90
f 139/149/134 7/7/80 146/164/135
f 134/140/136 145/161/137 139/150/134
f 140/151/138 59/65/128 144/160/139
f 134/140/136 143/157/140 136/144/141
f 142/155/142 134/140/136 137/145/143
f 61/67/129 141/153/144 63/69/131
f 57/63/75 142/156/142 137/146/143
f 136/143/141 67/73/132 65/71/130
f 134/140/136 144/159/139 137/145/143
f 6/6/79 145/162/137 4/4/78
f 134/140/136 146/163/135 138/147/145
f 141/153/144 65/71/130 63/69/131
f 143/158/140 69/75/81 67/73/132
f 146/164/135 69/75/81 138/148/145
f 145/162/137 3/3/77 4/4/78
f 1/1/76 135/142/146 142/156/142
f 144/160/139 57/63/75 137/146/143
f 134/140/136 141/154/144 140/152/138
f 89/95/104 92/98/105 88/94/106
f 81/87/66 119/125/62 120/126/120
f 118/124/15 48/48/53 124/130/36
f 74/80/1 58/64/86 2/2/2
f 9/9/3 2/2/2 62/68/4
f 13/13/5 62/68/4 5/5/6
f 5/5/6 66/72/84 21/21/8
f 21/21/8 66/72/84 8/8/9
f 8/8/9 70/76/89 126/132/11
f 28/28/12 97/103/74 132/138/13
f 118/124/15 124/130/36 123/129/16
f 37/37/18 38/38/71 33/33/19
f 19/19/21 23/23/52 47/47/22
f 10/10/24 14/14/54 15/15/25
f 22/22/27 21/21/8 25/25/10
f 24/24/29 28/28/12 53/53/14
f 117/123/17 123/129/16 122/128/31
f 36/36/33 37/37/18 32/32/20
f 93/99/35 123/129/16 124/130/36
f 20/20/38 24/24/29 52/52/30
f 46/46/23 47/47/22 42/42/40
f 36/36/33 31/31/34 30/30/42
f 27/27/44 26/26/28 95/101/45
f 18/18/46 17/17/7 21/21/8
f 50/50/47 16/16/56 20/20/38
f 46/46/23 41/41/41 40/40/48
f 35/35/43 30/30/42 29/29/50
f 23/23/52 27/27/44 48/48/53
f 22/22/27 23/23/52 19/19/21
f 14/14/54 13/13/5 17/17/7
f 49/49/55 12/12/61 16/16/56
f 45/45/49 40/40/48 39/39/57
f 98/104/59 111/117/65 34/34/51
f 45/45/49 15/15/25 19/19/21
f 14/14/54 18/18/46 19/19/21
f 9/9/3 13/13/5 14/14/54
f 133/139/60 71/77/73 12/12/61
f 119/125/62 125/131/72 112/118/63
f 112/118/63 39/39/57 34/34/51
f 81/87/66 80/86/123 76/82/67
f 73/79/69 74/80/1 9/9/3
f 39/39/57 40/40/48 35/35/43
f 40/40/48 41/41/41 36/36/33
f 42/42/40 37/37/18 36/36/33
f 43/43/70 38/38/71 37/37/18
f 118/124/15 110/116/133 38/38/71
f 44/44/58 39/39/57 112/118/63
f 71/77/73 98/104/59 29/29/50
f 12/12/61 29/29/50 30/30/42
f 16/16/56 30/30/42 31/31/34
f 31/31/34 32/32/20 24/24/29
f 32/32/20 33/33/19 28/28/12
f 33/33/19 104/110/82 97/103/74
f 25/25/10 126/132/11 95/101/45
f 57/63/75 133/139/60 49/49/55
f 1/1/76 49/49/55 50/50/47
f 3/3/77 50/50/47 51/51/39
f 51/51/39 52/52/30 6/6/79
f 52/52/30 53/53/14 7/7/80
f 53/53/14 132/138/13 69/75/81
f 38/38/71 110/116/133 104/110/82
f 77/83/68 76/82/67 73/79/69
f 74/80/1 75/81/91 60/66/90
f 75/81/91 79/85/92 62/68/4
f 79/85/92 83/89/95 64/70/93
f 87/93/94 66/72/84 64/70/93
f 87/93/94 91/97/97 68/74/96
f 126/132/11 70/76/89 68/74/96
f 132/138/13 97/103/74 94/100/98
f 27/27/44 96/102/37 124/130/36
f 108/114/100 102/108/110 103/109/101
f 85/91/103 121/127/113 122/128/31
f 26/26/28 27/27/44 23/23/52
f 92/98/105 91/97/97 87/93/94
f 131/137/99 94/100/98 90/96/107
f 107/113/109 101/107/127 102/108/110
f 43/43/70 42/42/40 47/47/22
f 130/136/108 90/96/107 86/92/111
f 121/127/113 115/121/126 116/122/32
f 100/106/114 101/107/127 107/113/109
f 93/99/35 96/102/37 95/101/45
f 84/90/116 88/94/106 87/93/94
f 128/134/117 129/135/112 86/92/111
f 114/120/119 115/121/126 121/127/113
f 99/105/121 100/106/114 106/112/115
f 123/129/16 93/99/35 89/95/104
f 88/94/106 84/90/116 85/91/103
f 84/90/116 83/89/95 79/85/92
f 127/133/124 128/134/117 82/88/118
f 113/119/64 114/120/119 120/126/120
f 98/104/59 99/105/121 105/111/122
f 120/126/120 121/127/113 85/91/103
f 85/91/103 84/90/116 80/86/123
f 80/86/123 79/85/92 75/81/91
f 133/139/60 127/133/124 78/84/125
f 105/111/122 113/119/64 112/118/63
f 15/15/25 45/45/49 44/44/58
f 73/79/69 10/10/24 11/11/26
f 73/79/69 76/82/67 75/81/91
f 113/119/64 105/111/122 106/112/115
f 114/120/119 106/112/115 107/113/109
f 107/113/109 108/114/100 116/122/32
f 108/114/100 109/115/102 117/123/17
f 109/115/102 110/116/133 118/124/15
f 11/11/26 44/44/58 125/131/72
f 71/77/73 78/84/125 99/105/121
f 78/84/125 82/88/118 100/106/114
f 82/88/118 86/92/111 101/107/127
f 90/96/107 102/108/110 101/107/127
f 94/100/98 103/109/101 102/108/110
f 97/103/74 104/110/82 103/109/101
f 92/98/105 95/101/45 126/132/11
f 57/63/75 59/65/128 127/133/124
f 59/65/128 61/67/129 128/134/117
f 61/67/129 63/69/131 129/135/112
f 65/71/130 130/136/108 129/135/112
f 67/73/132 131/137/99 130/136/108
f 69/75/81 132/138/13 131/137/99
f 109/115/102 103/109/101 104/110/82
f 77/83/68 72/78/83 125/131/72
f 139/149/134 6/6/79 7/7/80
f 134/140/136 135/141/146 145/161/137
f 140/151/138 61/67/129 59/65/128
f 134/140/136 138/147/145 143/157/140
f 142/155/142 135/141/146 134/140/136
f 61/67/129 140/151/138 141/153/144
f 57/63/75 1/1/76 142/156/142
f 136/143/141 143/158/140 67/73/132
f 134/140/136 140/152/138 144/159/139
f 6/6/79 139/149/134 145/162/137
f 134/140/136 139/150/134 146/163/135
f 141/153/144 136/143/141 65/71/130
f 143/158/140 138/148/145 69/75/81
f 146/164/135 7/7/80 69/75/81
f 145/162/137 135/142/146 3/3/77
f 1/1/76 3/3/77 135/142/146
f 144/160/139 59/65/128 57/63/75
f 134/140/136 136/144/141 141/154/144
f 89/95/104 93/99/35 92/98/105
f 81/87/66 77/83/68 119/125/62
f 118/124/15 43/43/70 48/48/53
