{
	"asset":{
		"generator":"Khronos glTF Blender I/O v3.5.30",
		"version":"2.0"
	},
	"scene":0,
	"scenes":[
		{
			"name":"Scene",
			"nodes":[
				2
			]
		}
	],
	"nodes":[
		{
			"name":"Ring",
			"rotation":[
				0.7071066498756409,
				5.881987341638251e-09,
				1.0088814406117308e-07,
				0.70710688829422
			],
			"translation":[
				-2.1758250756676034e-09,
				0.011079277843236923,
				-0.0069322967901825905
			]
		},
		{
			"mesh":0,
			"name":"RingModel",
			"skin":0
		},
		{
			"children":[
				1,
				0
			],
			"name":"Ring"
		}
	],
	"animations":[
		{
			"channels":[
				{
					"sampler":0,
					"target":{
						"node":0,
						"path":"translation"
					}
				},
				{
					"sampler":1,
					"target":{
						"node":0,
						"path":"rotation"
					}
				},
				{
					"sampler":2,
					"target":{
						"node":0,
						"path":"scale"
					}
				}
			],
			"name":"00_Idle",
			"samplers":[
				{
					"input":7,
					"interpolation":"LINEAR",
					"output":8
				},
				{
					"input":7,
					"interpolation":"LINEAR",
					"output":9
				},
				{
					"input":7,
					"interpolation":"LINEAR",
					"output":10
				}
			]
		},
		{
			"channels":[
				{
					"sampler":0,
					"target":{
						"node":0,
						"path":"translation"
					}
				},
				{
					"sampler":1,
					"target":{
						"node":0,
						"path":"rotation"
					}
				},
				{
					"sampler":2,
					"target":{
						"node":0,
						"path":"scale"
					}
				}
			],
			"name":"01_Throw",
			"samplers":[
				{
					"input":11,
					"interpolation":"LINEAR",
					"output":12
				},
				{
					"input":13,
					"interpolation":"LINEAR",
					"output":14
				},
				{
					"input":13,
					"interpolation":"LINEAR",
					"output":15
				}
			]
		}
	],
	"materials":[
		{
			"doubleSided":true,
			"name":"Ring",
			"pbrMetallicRoughness":{
				"baseColorTexture":{
					"index":0
				},
				"metallicFactor":0,
				"roughnessFactor":0.5
			}
		}
	],
	"meshes":[
		{
			"name":"\u5186\u67f1.002",
			"primitives":[
				{
					"attributes":{
						"POSITION":0,
						"TEXCOORD_0":1,
						"NORMAL":2,
						"JOINTS_0":3,
						"WEIGHTS_0":4
					},
					"indices":5,
					"material":0
				}
			]
		}
	],
	"textures":[
		{
			"sampler":0,
			"source":0
		}
	],
	"images":[
		{
			"mimeType":"image/png",
			"name":"AimRingTex",
			"uri":"AimRingTex.png"
		}
	],
	"skins":[
		{
			"inverseBindMatrices":6,
			"joints":[
				0
			],
			"name":"Ring"
		}
	],
	"accessors":[
		{
			"bufferView":0,
			"componentType":5126,
			"count":215,
			"max":[
				4.116704940795898,
				4.116704940795898,
				0.3974897861480713
			],
			"min":[
				-4.116704940795898,
				-4.116704940795898,
				-0.3974897861480713
			],
			"type":"VEC3"
		},
		{
			"bufferView":1,
			"componentType":5126,
			"count":215,
			"type":"VEC2"
		},
		{
			"bufferView":2,
			"componentType":5126,
			"count":215,
			"type":"VEC3"
		},
		{
			"bufferView":3,
			"componentType":5121,
			"count":215,
			"type":"VEC4"
		},
		{
			"bufferView":4,
			"componentType":5126,
			"count":215,
			"type":"VEC4"
		},
		{
			"bufferView":5,
			"componentType":5123,
			"count":294,
			"type":"SCALAR"
		},
		{
			"bufferView":6,
			"componentType":5126,
			"count":1,
			"type":"MAT4"
		},
		{
			"bufferView":7,
			"componentType":5126,
			"count":2,
			"max":[
				0.08333333333333333
			],
			"min":[
				0
			],
			"type":"SCALAR"
		},
		{
			"bufferView":8,
			"componentType":5126,
			"count":2,
			"type":"VEC3"
		},
		{
			"bufferView":9,
			"componentType":5126,
			"count":2,
			"type":"VEC4"
		},
		{
			"bufferView":10,
			"componentType":5126,
			"count":2,
			"type":"VEC3"
		},
		{
			"bufferView":11,
			"componentType":5126,
			"count":2,
			"max":[
				0.2
			],
			"min":[
				0
			],
			"type":"SCALAR"
		},
		{
			"bufferView":12,
			"componentType":5126,
			"count":2,
			"type":"VEC3"
		},
		{
			"bufferView":13,
			"componentType":5126,
			"count":13,
			"max":[
				0.2
			],
			"min":[
				0
			],
			"type":"SCALAR"
		},
		{
			"bufferView":14,
			"componentType":5126,
			"count":13,
			"type":"VEC4"
		},
		{
			"bufferView":15,
			"componentType":5126,
			"count":13,
			"type":"VEC3"
		}
	],
	"bufferViews":[
		{
			"buffer":0,
			"byteLength":2580,
			"byteOffset":0,
			"target":34962
		},
		{
			"buffer":0,
			"byteLength":1720,
			"byteOffset":2580,
			"target":34962
		},
		{
			"buffer":0,
			"byteLength":2580,
			"byteOffset":4300,
			"target":34962
		},
		{
			"buffer":0,
			"byteLength":860,
			"byteOffset":6880,
			"target":34962
		},
		{
			"buffer":0,
			"byteLength":3440,
			"byteOffset":7740,
			"target":34962
		},
		{
			"buffer":0,
			"byteLength":588,
			"byteOffset":11180,
			"target":34963
		},
		{
			"buffer":0,
			"byteLength":64,
			"byteOffset":11768
		},
		{
			"buffer":0,
			"byteLength":8,
			"byteOffset":11832
		},
		{
			"buffer":0,
			"byteLength":24,
			"byteOffset":11840
		},
		{
			"buffer":0,
			"byteLength":32,
			"byteOffset":11864
		},
		{
			"buffer":0,
			"byteLength":24,
			"byteOffset":11896
		},
		{
			"buffer":0,
			"byteLength":8,
			"byteOffset":11920
		},
		{
			"buffer":0,
			"byteLength":24,
			"byteOffset":11928
		},
		{
			"buffer":0,
			"byteLength":52,
			"byteOffset":11952
		},
		{
			"buffer":0,
			"byteLength":208,
			"byteOffset":12004
		},
		{
			"buffer":0,
			"byteLength":156,
			"byteOffset":12212
		}
	],
	"samplers":[
		{
			"magFilter":9729,
			"minFilter":9987
		}
	],
	"buffers":[
		{
			"byteLength":12368,
			"uri":"Ring.bin"
		}
	]
}
