{
	"asset":{
		"generator":"Khronos glTF Blender I/O v3.5.30",
		"version":"2.0"
	},
	"scene":0,
	"scenes":[
		{
			"name":"Scene",
			"nodes":[
				8
			]
		}
	],
	"nodes":[
		{
			"name":"SpearBend.004",
			"rotation":[
				-2.791039932503736e-08,
				8.512283014420509e-16,
				-1.4128963569861458e-14,
				1
			],
			"translation":[
				-2.271099974748836e-14,
				0.967680037021637,
				1.9267916151477493e-09
			]
		},
		{
			"children":[
				0
			],
			"name":"SpearBend.003",
			"rotation":[
				8.661857009428786e-09,
				3.6063037001099474e-09,
				3.924019041558896e-15,
				1
			],
			"translation":[
				-9.478529072737274e-15,
				0.9676803350448608,
				3.2026983842747825e-10
			]
		},
		{
			"children":[
				1
			],
			"name":"SpearBend.002",
			"rotation":[
				1.0105491554668333e-08,
				-2.1408188535711886e-14,
				2.1250186397862858e-14,
				1
			],
			"translation":[
				1.1712852909795402e-14,
				0.9676797986030579,
				2.4705096302035656e-10
			]
		},
		{
			"children":[
				2
			],
			"name":"SpearBend.001",
			"rotation":[
				2.3552000349980062e-09,
				-6.614499170609633e-08,
				-3.358971412126266e-08,
				1
			],
			"scale":[
				1,
				0.9999999403953552,
				1
			],
			"translation":[
				4.6937604913921405e-09,
				0.9676800966262817,
				-3.0213147539370766e-08
			]
		},
		{
			"children":[
				3
			],
			"name":"SpearBend.000",
			"rotation":[
				-1,
				6.717947087508946e-08,
				-1.9470718370939721e-07,
				9.927327937475638e-08
			],
			"translation":[
				1.3183013436446345e-07,
				2.3788795471191406,
				4.1966276853599993e-07
			]
		},
		{
			"children":[
				4
			],
			"name":"Grip",
			"rotation":[
				0.7071066498756409,
				5.882027309667137e-09,
				1.0088810142860893e-07,
				0.70710688829422
			],
			"translation":[
				-2.1758250756676034e-09,
				0.011079277843236923,
				-0.0069322967901825905
			]
		},
		{
			"mesh":0,
			"name":"Ribbon",
			"skin":0
		},
		{
			"mesh":1,
			"name":"SpearModel",
			"skin":0
		},
		{
			"children":[
				6,
				7,
				5
			],
			"name":"Spear"
		}
	],
	"animations":[
		{
			"channels":[
				{
					"sampler":0,
					"target":{
						"node":5,
						"path":"translation"
					}
				},
				{
					"sampler":1,
					"target":{
						"node":5,
						"path":"rotation"
					}
				},
				{
					"sampler":2,
					"target":{
						"node":5,
						"path":"scale"
					}
				},
				{
					"sampler":3,
					"target":{
						"node":4,
						"path":"translation"
					}
				},
				{
					"sampler":4,
					"target":{
						"node":4,
						"path":"rotation"
					}
				},
				{
					"sampler":5,
					"target":{
						"node":4,
						"path":"scale"
					}
				},
				{
					"sampler":6,
					"target":{
						"node":3,
						"path":"translation"
					}
				},
				{
					"sampler":7,
					"target":{
						"node":3,
						"path":"rotation"
					}
				},
				{
					"sampler":8,
					"target":{
						"node":3,
						"path":"scale"
					}
				},
				{
					"sampler":9,
					"target":{
						"node":2,
						"path":"translation"
					}
				},
				{
					"sampler":10,
					"target":{
						"node":2,
						"path":"rotation"
					}
				},
				{
					"sampler":11,
					"target":{
						"node":2,
						"path":"scale"
					}
				},
				{
					"sampler":12,
					"target":{
						"node":1,
						"path":"translation"
					}
				},
				{
					"sampler":13,
					"target":{
						"node":1,
						"path":"rotation"
					}
				},
				{
					"sampler":14,
					"target":{
						"node":1,
						"path":"scale"
					}
				},
				{
					"sampler":15,
					"target":{
						"node":0,
						"path":"translation"
					}
				},
				{
					"sampler":16,
					"target":{
						"node":0,
						"path":"rotation"
					}
				},
				{
					"sampler":17,
					"target":{
						"node":0,
						"path":"scale"
					}
				}
			],
			"name":"00_Idle",
			"samplers":[
				{
					"input":14,
					"interpolation":"LINEAR",
					"output":15
				},
				{
					"input":14,
					"interpolation":"LINEAR",
					"output":16
				},
				{
					"input":14,
					"interpolation":"LINEAR",
					"output":17
				},
				{
					"input":14,
					"interpolation":"LINEAR",
					"output":18
				},
				{
					"input":14,
					"interpolation":"LINEAR",
					"output":19
				},
				{
					"input":14,
					"interpolation":"LINEAR",
					"output":20
				},
				{
					"input":14,
					"interpolation":"LINEAR",
					"output":21
				},
				{
					"input":14,
					"interpolation":"LINEAR",
					"output":22
				},
				{
					"input":14,
					"interpolation":"LINEAR",
					"output":23
				},
				{
					"input":14,
					"interpolation":"LINEAR",
					"output":24
				},
				{
					"input":14,
					"interpolation":"LINEAR",
					"output":25
				},
				{
					"input":14,
					"interpolation":"LINEAR",
					"output":26
				},
				{
					"input":14,
					"interpolation":"LINEAR",
					"output":27
				},
				{
					"input":14,
					"interpolation":"LINEAR",
					"output":28
				},
				{
					"input":14,
					"interpolation":"LINEAR",
					"output":29
				},
				{
					"input":14,
					"interpolation":"LINEAR",
					"output":30
				},
				{
					"input":14,
					"interpolation":"LINEAR",
					"output":31
				},
				{
					"input":14,
					"interpolation":"LINEAR",
					"output":32
				}
			]
		},
		{
			"channels":[
				{
					"sampler":0,
					"target":{
						"node":5,
						"path":"translation"
					}
				},
				{
					"sampler":1,
					"target":{
						"node":5,
						"path":"rotation"
					}
				},
				{
					"sampler":2,
					"target":{
						"node":5,
						"path":"scale"
					}
				},
				{
					"sampler":3,
					"target":{
						"node":4,
						"path":"translation"
					}
				},
				{
					"sampler":4,
					"target":{
						"node":4,
						"path":"rotation"
					}
				},
				{
					"sampler":5,
					"target":{
						"node":4,
						"path":"scale"
					}
				},
				{
					"sampler":6,
					"target":{
						"node":3,
						"path":"translation"
					}
				},
				{
					"sampler":7,
					"target":{
						"node":3,
						"path":"rotation"
					}
				},
				{
					"sampler":8,
					"target":{
						"node":3,
						"path":"scale"
					}
				},
				{
					"sampler":9,
					"target":{
						"node":2,
						"path":"translation"
					}
				},
				{
					"sampler":10,
					"target":{
						"node":2,
						"path":"rotation"
					}
				},
				{
					"sampler":11,
					"target":{
						"node":2,
						"path":"scale"
					}
				},
				{
					"sampler":12,
					"target":{
						"node":1,
						"path":"translation"
					}
				},
				{
					"sampler":13,
					"target":{
						"node":1,
						"path":"rotation"
					}
				},
				{
					"sampler":14,
					"target":{
						"node":1,
						"path":"scale"
					}
				},
				{
					"sampler":15,
					"target":{
						"node":0,
						"path":"translation"
					}
				},
				{
					"sampler":16,
					"target":{
						"node":0,
						"path":"rotation"
					}
				},
				{
					"sampler":17,
					"target":{
						"node":0,
						"path":"scale"
					}
				}
			],
			"name":"01_Aim",
			"samplers":[
				{
					"input":33,
					"interpolation":"LINEAR",
					"output":34
				},
				{
					"input":33,
					"interpolation":"LINEAR",
					"output":35
				},
				{
					"input":33,
					"interpolation":"LINEAR",
					"output":36
				},
				{
					"input":33,
					"interpolation":"LINEAR",
					"output":37
				},
				{
					"input":33,
					"interpolation":"LINEAR",
					"output":38
				},
				{
					"input":33,
					"interpolation":"LINEAR",
					"output":39
				},
				{
					"input":33,
					"interpolation":"LINEAR",
					"output":40
				},
				{
					"input":33,
					"interpolation":"LINEAR",
					"output":41
				},
				{
					"input":33,
					"interpolation":"LINEAR",
					"output":42
				},
				{
					"input":33,
					"interpolation":"LINEAR",
					"output":43
				},
				{
					"input":33,
					"interpolation":"LINEAR",
					"output":44
				},
				{
					"input":33,
					"interpolation":"LINEAR",
					"output":45
				},
				{
					"input":33,
					"interpolation":"LINEAR",
					"output":46
				},
				{
					"input":33,
					"interpolation":"LINEAR",
					"output":47
				},
				{
					"input":33,
					"interpolation":"LINEAR",
					"output":48
				},
				{
					"input":33,
					"interpolation":"LINEAR",
					"output":49
				},
				{
					"input":33,
					"interpolation":"LINEAR",
					"output":50
				},
				{
					"input":33,
					"interpolation":"LINEAR",
					"output":51
				}
			]
		},
		{
			"channels":[
				{
					"sampler":0,
					"target":{
						"node":5,
						"path":"translation"
					}
				},
				{
					"sampler":1,
					"target":{
						"node":5,
						"path":"rotation"
					}
				},
				{
					"sampler":2,
					"target":{
						"node":5,
						"path":"scale"
					}
				},
				{
					"sampler":3,
					"target":{
						"node":4,
						"path":"translation"
					}
				},
				{
					"sampler":4,
					"target":{
						"node":4,
						"path":"rotation"
					}
				},
				{
					"sampler":5,
					"target":{
						"node":4,
						"path":"scale"
					}
				},
				{
					"sampler":6,
					"target":{
						"node":3,
						"path":"translation"
					}
				},
				{
					"sampler":7,
					"target":{
						"node":3,
						"path":"rotation"
					}
				},
				{
					"sampler":8,
					"target":{
						"node":3,
						"path":"scale"
					}
				},
				{
					"sampler":9,
					"target":{
						"node":2,
						"path":"translation"
					}
				},
				{
					"sampler":10,
					"target":{
						"node":2,
						"path":"rotation"
					}
				},
				{
					"sampler":11,
					"target":{
						"node":2,
						"path":"scale"
					}
				},
				{
					"sampler":12,
					"target":{
						"node":1,
						"path":"translation"
					}
				},
				{
					"sampler":13,
					"target":{
						"node":1,
						"path":"rotation"
					}
				},
				{
					"sampler":14,
					"target":{
						"node":1,
						"path":"scale"
					}
				},
				{
					"sampler":15,
					"target":{
						"node":0,
						"path":"translation"
					}
				},
				{
					"sampler":16,
					"target":{
						"node":0,
						"path":"rotation"
					}
				},
				{
					"sampler":17,
					"target":{
						"node":0,
						"path":"scale"
					}
				}
			],
			"name":"02_Aiming",
			"samplers":[
				{
					"input":52,
					"interpolation":"LINEAR",
					"output":53
				},
				{
					"input":52,
					"interpolation":"LINEAR",
					"output":54
				},
				{
					"input":52,
					"interpolation":"LINEAR",
					"output":55
				},
				{
					"input":52,
					"interpolation":"LINEAR",
					"output":56
				},
				{
					"input":52,
					"interpolation":"LINEAR",
					"output":57
				},
				{
					"input":52,
					"interpolation":"LINEAR",
					"output":58
				},
				{
					"input":52,
					"interpolation":"LINEAR",
					"output":59
				},
				{
					"input":52,
					"interpolation":"LINEAR",
					"output":60
				},
				{
					"input":52,
					"interpolation":"LINEAR",
					"output":61
				},
				{
					"input":52,
					"interpolation":"LINEAR",
					"output":62
				},
				{
					"input":52,
					"interpolation":"LINEAR",
					"output":63
				},
				{
					"input":52,
					"interpolation":"LINEAR",
					"output":64
				},
				{
					"input":52,
					"interpolation":"LINEAR",
					"output":65
				},
				{
					"input":52,
					"interpolation":"LINEAR",
					"output":66
				},
				{
					"input":52,
					"interpolation":"LINEAR",
					"output":67
				},
				{
					"input":52,
					"interpolation":"LINEAR",
					"output":68
				},
				{
					"input":52,
					"interpolation":"LINEAR",
					"output":69
				},
				{
					"input":52,
					"interpolation":"LINEAR",
					"output":70
				}
			]
		},
		{
			"channels":[
				{
					"sampler":0,
					"target":{
						"node":5,
						"path":"translation"
					}
				},
				{
					"sampler":1,
					"target":{
						"node":5,
						"path":"rotation"
					}
				},
				{
					"sampler":2,
					"target":{
						"node":5,
						"path":"scale"
					}
				},
				{
					"sampler":3,
					"target":{
						"node":4,
						"path":"translation"
					}
				},
				{
					"sampler":4,
					"target":{
						"node":4,
						"path":"rotation"
					}
				},
				{
					"sampler":5,
					"target":{
						"node":4,
						"path":"scale"
					}
				},
				{
					"sampler":6,
					"target":{
						"node":3,
						"path":"translation"
					}
				},
				{
					"sampler":7,
					"target":{
						"node":3,
						"path":"rotation"
					}
				},
				{
					"sampler":8,
					"target":{
						"node":3,
						"path":"scale"
					}
				},
				{
					"sampler":9,
					"target":{
						"node":2,
						"path":"translation"
					}
				},
				{
					"sampler":10,
					"target":{
						"node":2,
						"path":"rotation"
					}
				},
				{
					"sampler":11,
					"target":{
						"node":2,
						"path":"scale"
					}
				},
				{
					"sampler":12,
					"target":{
						"node":1,
						"path":"translation"
					}
				},
				{
					"sampler":13,
					"target":{
						"node":1,
						"path":"rotation"
					}
				},
				{
					"sampler":14,
					"target":{
						"node":1,
						"path":"scale"
					}
				},
				{
					"sampler":15,
					"target":{
						"node":0,
						"path":"translation"
					}
				},
				{
					"sampler":16,
					"target":{
						"node":0,
						"path":"rotation"
					}
				},
				{
					"sampler":17,
					"target":{
						"node":0,
						"path":"scale"
					}
				}
			],
			"name":"03_throw",
			"samplers":[
				{
					"input":71,
					"interpolation":"LINEAR",
					"output":72
				},
				{
					"input":71,
					"interpolation":"LINEAR",
					"output":73
				},
				{
					"input":71,
					"interpolation":"LINEAR",
					"output":74
				},
				{
					"input":71,
					"interpolation":"LINEAR",
					"output":75
				},
				{
					"input":71,
					"interpolation":"LINEAR",
					"output":76
				},
				{
					"input":71,
					"interpolation":"LINEAR",
					"output":77
				},
				{
					"input":71,
					"interpolation":"LINEAR",
					"output":78
				},
				{
					"input":71,
					"interpolation":"LINEAR",
					"output":79
				},
				{
					"input":71,
					"interpolation":"LINEAR",
					"output":80
				},
				{
					"input":71,
					"interpolation":"LINEAR",
					"output":81
				},
				{
					"input":71,
					"interpolation":"LINEAR",
					"output":82
				},
				{
					"input":71,
					"interpolation":"LINEAR",
					"output":83
				},
				{
					"input":71,
					"interpolation":"LINEAR",
					"output":84
				},
				{
					"input":71,
					"interpolation":"LINEAR",
					"output":85
				},
				{
					"input":71,
					"interpolation":"LINEAR",
					"output":86
				},
				{
					"input":71,
					"interpolation":"LINEAR",
					"output":87
				},
				{
					"input":71,
					"interpolation":"LINEAR",
					"output":88
				},
				{
					"input":71,
					"interpolation":"LINEAR",
					"output":89
				}
			]
		},
		{
			"channels":[
				{
					"sampler":0,
					"target":{
						"node":5,
						"path":"translation"
					}
				},
				{
					"sampler":1,
					"target":{
						"node":5,
						"path":"rotation"
					}
				},
				{
					"sampler":2,
					"target":{
						"node":5,
						"path":"scale"
					}
				},
				{
					"sampler":3,
					"target":{
						"node":4,
						"path":"translation"
					}
				},
				{
					"sampler":4,
					"target":{
						"node":4,
						"path":"rotation"
					}
				},
				{
					"sampler":5,
					"target":{
						"node":4,
						"path":"scale"
					}
				},
				{
					"sampler":6,
					"target":{
						"node":3,
						"path":"translation"
					}
				},
				{
					"sampler":7,
					"target":{
						"node":3,
						"path":"rotation"
					}
				},
				{
					"sampler":8,
					"target":{
						"node":3,
						"path":"scale"
					}
				},
				{
					"sampler":9,
					"target":{
						"node":2,
						"path":"translation"
					}
				},
				{
					"sampler":10,
					"target":{
						"node":2,
						"path":"rotation"
					}
				},
				{
					"sampler":11,
					"target":{
						"node":2,
						"path":"scale"
					}
				},
				{
					"sampler":12,
					"target":{
						"node":1,
						"path":"translation"
					}
				},
				{
					"sampler":13,
					"target":{
						"node":1,
						"path":"rotation"
					}
				},
				{
					"sampler":14,
					"target":{
						"node":1,
						"path":"scale"
					}
				},
				{
					"sampler":15,
					"target":{
						"node":0,
						"path":"translation"
					}
				},
				{
					"sampler":16,
					"target":{
						"node":0,
						"path":"rotation"
					}
				},
				{
					"sampler":17,
					"target":{
						"node":0,
						"path":"scale"
					}
				}
			],
			"name":"04_Bounce",
			"samplers":[
				{
					"input":90,
					"interpolation":"LINEAR",
					"output":91
				},
				{
					"input":90,
					"interpolation":"LINEAR",
					"output":92
				},
				{
					"input":90,
					"interpolation":"LINEAR",
					"output":93
				},
				{
					"input":90,
					"interpolation":"LINEAR",
					"output":94
				},
				{
					"input":90,
					"interpolation":"LINEAR",
					"output":95
				},
				{
					"input":90,
					"interpolation":"LINEAR",
					"output":96
				},
				{
					"input":90,
					"interpolation":"LINEAR",
					"output":97
				},
				{
					"input":90,
					"interpolation":"LINEAR",
					"output":98
				},
				{
					"input":90,
					"interpolation":"LINEAR",
					"output":99
				},
				{
					"input":90,
					"interpolation":"LINEAR",
					"output":100
				},
				{
					"input":90,
					"interpolation":"LINEAR",
					"output":101
				},
				{
					"input":90,
					"interpolation":"LINEAR",
					"output":102
				},
				{
					"input":90,
					"interpolation":"LINEAR",
					"output":103
				},
				{
					"input":90,
					"interpolation":"LINEAR",
					"output":104
				},
				{
					"input":90,
					"interpolation":"LINEAR",
					"output":105
				},
				{
					"input":90,
					"interpolation":"LINEAR",
					"output":106
				},
				{
					"input":90,
					"interpolation":"LINEAR",
					"output":107
				},
				{
					"input":90,
					"interpolation":"LINEAR",
					"output":108
				}
			]
		},
		{
			"channels":[
				{
					"sampler":0,
					"target":{
						"node":5,
						"path":"translation"
					}
				},
				{
					"sampler":1,
					"target":{
						"node":5,
						"path":"rotation"
					}
				},
				{
					"sampler":2,
					"target":{
						"node":5,
						"path":"scale"
					}
				},
				{
					"sampler":3,
					"target":{
						"node":4,
						"path":"translation"
					}
				},
				{
					"sampler":4,
					"target":{
						"node":4,
						"path":"rotation"
					}
				},
				{
					"sampler":5,
					"target":{
						"node":4,
						"path":"scale"
					}
				},
				{
					"sampler":6,
					"target":{
						"node":3,
						"path":"translation"
					}
				},
				{
					"sampler":7,
					"target":{
						"node":3,
						"path":"rotation"
					}
				},
				{
					"sampler":8,
					"target":{
						"node":3,
						"path":"scale"
					}
				},
				{
					"sampler":9,
					"target":{
						"node":2,
						"path":"translation"
					}
				},
				{
					"sampler":10,
					"target":{
						"node":2,
						"path":"rotation"
					}
				},
				{
					"sampler":11,
					"target":{
						"node":2,
						"path":"scale"
					}
				},
				{
					"sampler":12,
					"target":{
						"node":1,
						"path":"translation"
					}
				},
				{
					"sampler":13,
					"target":{
						"node":1,
						"path":"rotation"
					}
				},
				{
					"sampler":14,
					"target":{
						"node":1,
						"path":"scale"
					}
				},
				{
					"sampler":15,
					"target":{
						"node":0,
						"path":"translation"
					}
				},
				{
					"sampler":16,
					"target":{
						"node":0,
						"path":"rotation"
					}
				},
				{
					"sampler":17,
					"target":{
						"node":0,
						"path":"scale"
					}
				}
			],
			"name":"97_BendStart",
			"samplers":[
				{
					"input":109,
					"interpolation":"LINEAR",
					"output":110
				},
				{
					"input":109,
					"interpolation":"LINEAR",
					"output":111
				},
				{
					"input":109,
					"interpolation":"LINEAR",
					"output":112
				},
				{
					"input":109,
					"interpolation":"LINEAR",
					"output":113
				},
				{
					"input":109,
					"interpolation":"LINEAR",
					"output":114
				},
				{
					"input":109,
					"interpolation":"LINEAR",
					"output":115
				},
				{
					"input":109,
					"interpolation":"LINEAR",
					"output":116
				},
				{
					"input":109,
					"interpolation":"LINEAR",
					"output":117
				},
				{
					"input":109,
					"interpolation":"LINEAR",
					"output":118
				},
				{
					"input":109,
					"interpolation":"LINEAR",
					"output":119
				},
				{
					"input":109,
					"interpolation":"LINEAR",
					"output":120
				},
				{
					"input":109,
					"interpolation":"LINEAR",
					"output":121
				},
				{
					"input":109,
					"interpolation":"LINEAR",
					"output":122
				},
				{
					"input":109,
					"interpolation":"LINEAR",
					"output":123
				},
				{
					"input":109,
					"interpolation":"LINEAR",
					"output":124
				},
				{
					"input":109,
					"interpolation":"LINEAR",
					"output":125
				},
				{
					"input":109,
					"interpolation":"LINEAR",
					"output":126
				},
				{
					"input":109,
					"interpolation":"LINEAR",
					"output":127
				}
			]
		},
		{
			"channels":[
				{
					"sampler":0,
					"target":{
						"node":5,
						"path":"translation"
					}
				},
				{
					"sampler":1,
					"target":{
						"node":5,
						"path":"rotation"
					}
				},
				{
					"sampler":2,
					"target":{
						"node":5,
						"path":"scale"
					}
				},
				{
					"sampler":3,
					"target":{
						"node":4,
						"path":"translation"
					}
				},
				{
					"sampler":4,
					"target":{
						"node":4,
						"path":"rotation"
					}
				},
				{
					"sampler":5,
					"target":{
						"node":4,
						"path":"scale"
					}
				},
				{
					"sampler":6,
					"target":{
						"node":3,
						"path":"translation"
					}
				},
				{
					"sampler":7,
					"target":{
						"node":3,
						"path":"rotation"
					}
				},
				{
					"sampler":8,
					"target":{
						"node":3,
						"path":"scale"
					}
				},
				{
					"sampler":9,
					"target":{
						"node":2,
						"path":"translation"
					}
				},
				{
					"sampler":10,
					"target":{
						"node":2,
						"path":"rotation"
					}
				},
				{
					"sampler":11,
					"target":{
						"node":2,
						"path":"scale"
					}
				},
				{
					"sampler":12,
					"target":{
						"node":1,
						"path":"translation"
					}
				},
				{
					"sampler":13,
					"target":{
						"node":1,
						"path":"rotation"
					}
				},
				{
					"sampler":14,
					"target":{
						"node":1,
						"path":"scale"
					}
				},
				{
					"sampler":15,
					"target":{
						"node":0,
						"path":"translation"
					}
				},
				{
					"sampler":16,
					"target":{
						"node":0,
						"path":"rotation"
					}
				},
				{
					"sampler":17,
					"target":{
						"node":0,
						"path":"scale"
					}
				}
			],
			"name":"98_Bending",
			"samplers":[
				{
					"input":33,
					"interpolation":"LINEAR",
					"output":128
				},
				{
					"input":33,
					"interpolation":"LINEAR",
					"output":129
				},
				{
					"input":33,
					"interpolation":"LINEAR",
					"output":130
				},
				{
					"input":33,
					"interpolation":"LINEAR",
					"output":131
				},
				{
					"input":33,
					"interpolation":"LINEAR",
					"output":132
				},
				{
					"input":33,
					"interpolation":"LINEAR",
					"output":133
				},
				{
					"input":33,
					"interpolation":"LINEAR",
					"output":134
				},
				{
					"input":33,
					"interpolation":"LINEAR",
					"output":135
				},
				{
					"input":33,
					"interpolation":"LINEAR",
					"output":136
				},
				{
					"input":33,
					"interpolation":"LINEAR",
					"output":137
				},
				{
					"input":33,
					"interpolation":"LINEAR",
					"output":138
				},
				{
					"input":33,
					"interpolation":"LINEAR",
					"output":139
				},
				{
					"input":33,
					"interpolation":"LINEAR",
					"output":140
				},
				{
					"input":33,
					"interpolation":"LINEAR",
					"output":141
				},
				{
					"input":33,
					"interpolation":"LINEAR",
					"output":142
				},
				{
					"input":33,
					"interpolation":"LINEAR",
					"output":143
				},
				{
					"input":33,
					"interpolation":"LINEAR",
					"output":144
				},
				{
					"input":33,
					"interpolation":"LINEAR",
					"output":145
				}
			]
		},
		{
			"channels":[
				{
					"sampler":0,
					"target":{
						"node":5,
						"path":"translation"
					}
				},
				{
					"sampler":1,
					"target":{
						"node":5,
						"path":"rotation"
					}
				},
				{
					"sampler":2,
					"target":{
						"node":5,
						"path":"scale"
					}
				},
				{
					"sampler":3,
					"target":{
						"node":4,
						"path":"translation"
					}
				},
				{
					"sampler":4,
					"target":{
						"node":4,
						"path":"rotation"
					}
				},
				{
					"sampler":5,
					"target":{
						"node":4,
						"path":"scale"
					}
				},
				{
					"sampler":6,
					"target":{
						"node":3,
						"path":"translation"
					}
				},
				{
					"sampler":7,
					"target":{
						"node":3,
						"path":"rotation"
					}
				},
				{
					"sampler":8,
					"target":{
						"node":3,
						"path":"scale"
					}
				},
				{
					"sampler":9,
					"target":{
						"node":2,
						"path":"translation"
					}
				},
				{
					"sampler":10,
					"target":{
						"node":2,
						"path":"rotation"
					}
				},
				{
					"sampler":11,
					"target":{
						"node":2,
						"path":"scale"
					}
				},
				{
					"sampler":12,
					"target":{
						"node":1,
						"path":"translation"
					}
				},
				{
					"sampler":13,
					"target":{
						"node":1,
						"path":"rotation"
					}
				},
				{
					"sampler":14,
					"target":{
						"node":1,
						"path":"scale"
					}
				},
				{
					"sampler":15,
					"target":{
						"node":0,
						"path":"translation"
					}
				},
				{
					"sampler":16,
					"target":{
						"node":0,
						"path":"rotation"
					}
				},
				{
					"sampler":17,
					"target":{
						"node":0,
						"path":"scale"
					}
				}
			],
			"name":"99_NoneAnim",
			"samplers":[
				{
					"input":33,
					"interpolation":"LINEAR",
					"output":146
				},
				{
					"input":33,
					"interpolation":"LINEAR",
					"output":147
				},
				{
					"input":33,
					"interpolation":"LINEAR",
					"output":148
				},
				{
					"input":33,
					"interpolation":"LINEAR",
					"output":149
				},
				{
					"input":33,
					"interpolation":"LINEAR",
					"output":150
				},
				{
					"input":33,
					"interpolation":"LINEAR",
					"output":151
				},
				{
					"input":33,
					"interpolation":"LINEAR",
					"output":152
				},
				{
					"input":33,
					"interpolation":"LINEAR",
					"output":153
				},
				{
					"input":33,
					"interpolation":"LINEAR",
					"output":154
				},
				{
					"input":33,
					"interpolation":"LINEAR",
					"output":155
				},
				{
					"input":33,
					"interpolation":"LINEAR",
					"output":156
				},
				{
					"input":33,
					"interpolation":"LINEAR",
					"output":157
				},
				{
					"input":33,
					"interpolation":"LINEAR",
					"output":158
				},
				{
					"input":33,
					"interpolation":"LINEAR",
					"output":159
				},
				{
					"input":33,
					"interpolation":"LINEAR",
					"output":160
				},
				{
					"input":33,
					"interpolation":"LINEAR",
					"output":161
				},
				{
					"input":33,
					"interpolation":"LINEAR",
					"output":162
				},
				{
					"input":33,
					"interpolation":"LINEAR",
					"output":163
				}
			]
		}
	],
	"materials":[
		{
			"doubleSided":true,
			"name":"String.001",
			"pbrMetallicRoughness":{
				"baseColorTexture":{
					"index":0
				},
				"metallicFactor":0,
				"roughnessFactor":0.5
			}
		},
		{
			"doubleSided":true,
			"name":"Spear.001",
			"pbrMetallicRoughness":{
				"baseColorTexture":{
					"index":1
				},
				"metallicFactor":0,
				"roughnessFactor":0.5
			}
		}
	],
	"meshes":[
		{
			"name":"\u7acb\u65b9\u4f53.004",
			"primitives":[
				{
					"attributes":{
						"POSITION":0,
						"TEXCOORD_0":1,
						"NORMAL":2,
						"JOINTS_0":3,
						"WEIGHTS_0":4
					},
					"indices":5,
					"material":0
				}
			]
		},
		{
			"name":"\u5186\u67f1.001",
			"primitives":[
				{
					"attributes":{
						"COLOR_0":7,
						"POSITION":8,
						"TEXCOORD_0":9,
						"NORMAL":10,
						"JOINTS_0":11,
						"WEIGHTS_0":12
					},
					"indices":13,
					"material":1
				}
			]
		}
	],
	"textures":[
		{
			"sampler":0,
			"source":0
		},
		{
			"sampler":0,
			"source":1
		}
	],
	"images":[
		{
			"mimeType":"image/png",
			"name":"SpearStringTex",
			"uri":"SpearStringTex.png"
		},
		{
			"mimeType":"image/png",
			"name":"BambooSpearTex",
			"uri":"BambooSpearTex.png"
		}
	],
	"skins":[
		{
			"inverseBindMatrices":6,
			"joints":[
				5,
				4,
				3,
				2,
				1,
				0
			],
			"name":"Spear"
		}
	],
	"accessors":[
		{
			"bufferView":0,
			"componentType":5126,
			"count":635,
			"max":[
				0.16889935731887817,
				0.18408054113388062,
				1.5338588953018188
			],
			"min":[
				-0.16883322596549988,
				-0.16791102290153503,
				1.478348970413208
			],
			"type":"VEC3"
		},
		{
			"bufferView":1,
			"componentType":5126,
			"count":635,
			"type":"VEC2"
		},
		{
			"bufferView":2,
			"componentType":5126,
			"count":635,
			"type":"VEC3"
		},
		{
			"bufferView":3,
			"componentType":5121,
			"count":635,
			"type":"VEC4"
		},
		{
			"bufferView":4,
			"componentType":5126,
			"count":635,
			"type":"VEC4"
		},
		{
			"bufferView":5,
			"componentType":5123,
			"count":1524,
			"type":"SCALAR"
		},
		{
			"bufferView":6,
			"componentType":5126,
			"count":6,
			"type":"MAT4"
		},
		{
			"bufferView":7,
			"componentType":5123,
			"count":2534,
			"normalized":true,
			"type":"VEC4"
		},
		{
			"bufferView":8,
			"componentType":5126,
			"count":2534,
			"max":[
				0.17013363540172577,
				0.16840581595897675,
				2.3740901947021484
			],
			"min":[
				-0.17006677389144897,
				-0.1717943549156189,
				-2.445396900177002
			],
			"type":"VEC3"
		},
		{
			"bufferView":9,
			"componentType":5126,
			"count":2534,
			"type":"VEC2"
		},
		{
			"bufferView":10,
			"componentType":5126,
			"count":2534,
			"type":"VEC3"
		},
		{
			"bufferView":11,
			"componentType":5121,
			"count":2534,
			"type":"VEC4"
		},
		{
			"bufferView":12,
			"componentType":5126,
			"count":2534,
			"type":"VEC4"
		},
		{
			"bufferView":13,
			"componentType":5123,
			"count":12288,
			"type":"SCALAR"
		},
		{
			"bufferView":14,
			"componentType":5126,
			"count":6,
			"max":[
				0.08333333333333333
			],
			"min":[
				0
			],
			"type":"SCALAR"
		},
		{
			"bufferView":15,
			"componentType":5126,
			"count":6,
			"type":"VEC3"
		},
		{
			"bufferView":16,
			"componentType":5126,
			"count":6,
			"type":"VEC4"
		},
		{
			"bufferView":17,
			"componentType":5126,
			"count":6,
			"type":"VEC3"
		},
		{
			"bufferView":18,
			"componentType":5126,
			"count":6,
			"type":"VEC3"
		},
		{
			"bufferView":19,
			"componentType":5126,
			"count":6,
			"type":"VEC4"
		},
		{
			"bufferView":20,
			"componentType":5126,
			"count":6,
			"type":"VEC3"
		},
		{
			"bufferView":21,
			"componentType":5126,
			"count":6,
			"type":"VEC3"
		},
		{
			"bufferView":22,
			"componentType":5126,
			"count":6,
			"type":"VEC4"
		},
		{
			"bufferView":23,
			"componentType":5126,
			"count":6,
			"type":"VEC3"
		},
		{
			"bufferView":24,
			"componentType":5126,
			"count":6,
			"type":"VEC3"
		},
		{
			"bufferView":25,
			"componentType":5126,
			"count":6,
			"type":"VEC4"
		},
		{
			"bufferView":26,
			"componentType":5126,
			"count":6,
			"type":"VEC3"
		},
		{
			"bufferView":27,
			"componentType":5126,
			"count":6,
			"type":"VEC3"
		},
		{
			"bufferView":28,
			"componentType":5126,
			"count":6,
			"type":"VEC4"
		},
		{
			"bufferView":29,
			"componentType":5126,
			"count":6,
			"type":"VEC3"
		},
		{
			"bufferView":30,
			"componentType":5126,
			"count":6,
			"type":"VEC3"
		},
		{
			"bufferView":31,
			"componentType":5126,
			"count":6,
			"type":"VEC4"
		},
		{
			"bufferView":32,
			"componentType":5126,
			"count":6,
			"type":"VEC3"
		},
		{
			"bufferView":33,
			"componentType":5126,
			"count":1,
			"max":[
				0
			],
			"min":[
				0
			],
			"type":"SCALAR"
		},
		{
			"bufferView":34,
			"componentType":5126,
			"count":1,
			"type":"VEC3"
		},
		{
			"bufferView":35,
			"componentType":5126,
			"count":1,
			"type":"VEC4"
		},
		{
			"bufferView":36,
			"componentType":5126,
			"count":1,
			"type":"VEC3"
		},
		{
			"bufferView":37,
			"componentType":5126,
			"count":1,
			"type":"VEC3"
		},
		{
			"bufferView":38,
			"componentType":5126,
			"count":1,
			"type":"VEC4"
		},
		{
			"bufferView":39,
			"componentType":5126,
			"count":1,
			"type":"VEC3"
		},
		{
			"bufferView":40,
			"componentType":5126,
			"count":1,
			"type":"VEC3"
		},
		{
			"bufferView":41,
			"componentType":5126,
			"count":1,
			"type":"VEC4"
		},
		{
			"bufferView":42,
			"componentType":5126,
			"count":1,
			"type":"VEC3"
		},
		{
			"bufferView":43,
			"componentType":5126,
			"count":1,
			"type":"VEC3"
		},
		{
			"bufferView":44,
			"componentType":5126,
			"count":1,
			"type":"VEC4"
		},
		{
			"bufferView":45,
			"componentType":5126,
			"count":1,
			"type":"VEC3"
		},
		{
			"bufferView":46,
			"componentType":5126,
			"count":1,
			"type":"VEC3"
		},
		{
			"bufferView":47,
			"componentType":5126,
			"count":1,
			"type":"VEC4"
		},
		{
			"bufferView":48,
			"componentType":5126,
			"count":1,
			"type":"VEC3"
		},
		{
			"bufferView":49,
			"componentType":5126,
			"count":1,
			"type":"VEC3"
		},
		{
			"bufferView":50,
			"componentType":5126,
			"count":1,
			"type":"VEC4"
		},
		{
			"bufferView":51,
			"componentType":5126,
			"count":1,
			"type":"VEC3"
		},
		{
			"bufferView":52,
			"componentType":5126,
			"count":41,
			"max":[
				0.6666666666666666
			],
			"min":[
				0
			],
			"type":"SCALAR"
		},
		{
			"bufferView":53,
			"componentType":5126,
			"count":41,
			"type":"VEC3"
		},
		{
			"bufferView":54,
			"componentType":5126,
			"count":41,
			"type":"VEC4"
		},
		{
			"bufferView":55,
			"componentType":5126,
			"count":41,
			"type":"VEC3"
		},
		{
			"bufferView":56,
			"componentType":5126,
			"count":41,
			"type":"VEC3"
		},
		{
			"bufferView":57,
			"componentType":5126,
			"count":41,
			"type":"VEC4"
		},
		{
			"bufferView":58,
			"componentType":5126,
			"count":41,
			"type":"VEC3"
		},
		{
			"bufferView":59,
			"componentType":5126,
			"count":41,
			"type":"VEC3"
		},
		{
			"bufferView":60,
			"componentType":5126,
			"count":41,
			"type":"VEC4"
		},
		{
			"bufferView":61,
			"componentType":5126,
			"count":41,
			"type":"VEC3"
		},
		{
			"bufferView":62,
			"componentType":5126,
			"count":41,
			"type":"VEC3"
		},
		{
			"bufferView":63,
			"componentType":5126,
			"count":41,
			"type":"VEC4"
		},
		{
			"bufferView":64,
			"componentType":5126,
			"count":41,
			"type":"VEC3"
		},
		{
			"bufferView":65,
			"componentType":5126,
			"count":41,
			"type":"VEC3"
		},
		{
			"bufferView":66,
			"componentType":5126,
			"count":41,
			"type":"VEC4"
		},
		{
			"bufferView":67,
			"componentType":5126,
			"count":41,
			"type":"VEC3"
		},
		{
			"bufferView":68,
			"componentType":5126,
			"count":41,
			"type":"VEC3"
		},
		{
			"bufferView":69,
			"componentType":5126,
			"count":41,
			"type":"VEC4"
		},
		{
			"bufferView":70,
			"componentType":5126,
			"count":41,
			"type":"VEC3"
		},
		{
			"bufferView":71,
			"componentType":5126,
			"count":8,
			"max":[
				0.11666666666666667
			],
			"min":[
				0
			],
			"type":"SCALAR"
		},
		{
			"bufferView":72,
			"componentType":5126,
			"count":8,
			"type":"VEC3"
		},
		{
			"bufferView":73,
			"componentType":5126,
			"count":8,
			"type":"VEC4"
		},
		{
			"bufferView":74,
			"componentType":5126,
			"count":8,
			"type":"VEC3"
		},
		{
			"bufferView":75,
			"componentType":5126,
			"count":8,
			"type":"VEC3"
		},
		{
			"bufferView":76,
			"componentType":5126,
			"count":8,
			"type":"VEC4"
		},
		{
			"bufferView":77,
			"componentType":5126,
			"count":8,
			"type":"VEC3"
		},
		{
			"bufferView":78,
			"componentType":5126,
			"count":8,
			"type":"VEC3"
		},
		{
			"bufferView":79,
			"componentType":5126,
			"count":8,
			"type":"VEC4"
		},
		{
			"bufferView":80,
			"componentType":5126,
			"count":8,
			"type":"VEC3"
		},
		{
			"bufferView":81,
			"componentType":5126,
			"count":8,
			"type":"VEC3"
		},
		{
			"bufferView":82,
			"componentType":5126,
			"count":8,
			"type":"VEC4"
		},
		{
			"bufferView":83,
			"componentType":5126,
			"count":8,
			"type":"VEC3"
		},
		{
			"bufferView":84,
			"componentType":5126,
			"count":8,
			"type":"VEC3"
		},
		{
			"bufferView":85,
			"componentType":5126,
			"count":8,
			"type":"VEC4"
		},
		{
			"bufferView":86,
			"componentType":5126,
			"count":8,
			"type":"VEC3"
		},
		{
			"bufferView":87,
			"componentType":5126,
			"count":8,
			"type":"VEC3"
		},
		{
			"bufferView":88,
			"componentType":5126,
			"count":8,
			"type":"VEC4"
		},
		{
			"bufferView":89,
			"componentType":5126,
			"count":8,
			"type":"VEC3"
		},
		{
			"bufferView":90,
			"componentType":5126,
			"count":31,
			"max":[
				0.5
			],
			"min":[
				0
			],
			"type":"SCALAR"
		},
		{
			"bufferView":91,
			"componentType":5126,
			"count":31,
			"type":"VEC3"
		},
		{
			"bufferView":92,
			"componentType":5126,
			"count":31,
			"type":"VEC4"
		},
		{
			"bufferView":93,
			"componentType":5126,
			"count":31,
			"type":"VEC3"
		},
		{
			"bufferView":94,
			"componentType":5126,
			"count":31,
			"type":"VEC3"
		},
		{
			"bufferView":95,
			"componentType":5126,
			"count":31,
			"type":"VEC4"
		},
		{
			"bufferView":96,
			"componentType":5126,
			"count":31,
			"type":"VEC3"
		},
		{
			"bufferView":97,
			"componentType":5126,
			"count":31,
			"type":"VEC3"
		},
		{
			"bufferView":98,
			"componentType":5126,
			"count":31,
			"type":"VEC4"
		},
		{
			"bufferView":99,
			"componentType":5126,
			"count":31,
			"type":"VEC3"
		},
		{
			"bufferView":100,
			"componentType":5126,
			"count":31,
			"type":"VEC3"
		},
		{
			"bufferView":101,
			"componentType":5126,
			"count":31,
			"type":"VEC4"
		},
		{
			"bufferView":102,
			"componentType":5126,
			"count":31,
			"type":"VEC3"
		},
		{
			"bufferView":103,
			"componentType":5126,
			"count":31,
			"type":"VEC3"
		},
		{
			"bufferView":104,
			"componentType":5126,
			"count":31,
			"type":"VEC4"
		},
		{
			"bufferView":105,
			"componentType":5126,
			"count":31,
			"type":"VEC3"
		},
		{
			"bufferView":106,
			"componentType":5126,
			"count":31,
			"type":"VEC3"
		},
		{
			"bufferView":107,
			"componentType":5126,
			"count":31,
			"type":"VEC4"
		},
		{
			"bufferView":108,
			"componentType":5126,
			"count":31,
			"type":"VEC3"
		},
		{
			"bufferView":109,
			"componentType":5126,
			"count":26,
			"max":[
				0.4166666666666667
			],
			"min":[
				0
			],
			"type":"SCALAR"
		},
		{
			"bufferView":110,
			"componentType":5126,
			"count":26,
			"type":"VEC3"
		},
		{
			"bufferView":111,
			"componentType":5126,
			"count":26,
			"type":"VEC4"
		},
		{
			"bufferView":112,
			"componentType":5126,
			"count":26,
			"type":"VEC3"
		},
		{
			"bufferView":113,
			"componentType":5126,
			"count":26,
			"type":"VEC3"
		},
		{
			"bufferView":114,
			"componentType":5126,
			"count":26,
			"type":"VEC4"
		},
		{
			"bufferView":115,
			"componentType":5126,
			"count":26,
			"type":"VEC3"
		},
		{
			"bufferView":116,
			"componentType":5126,
			"count":26,
			"type":"VEC3"
		},
		{
			"bufferView":117,
			"componentType":5126,
			"count":26,
			"type":"VEC4"
		},
		{
			"bufferView":118,
			"componentType":5126,
			"count":26,
			"type":"VEC3"
		},
		{
			"bufferView":119,
			"componentType":5126,
			"count":26,
			"type":"VEC3"
		},
		{
			"bufferView":120,
			"componentType":5126,
			"count":26,
			"type":"VEC4"
		},
		{
			"bufferView":121,
			"componentType":5126,
			"count":26,
			"type":"VEC3"
		},
		{
			"bufferView":122,
			"componentType":5126,
			"count":26,
			"type":"VEC3"
		},
		{
			"bufferView":123,
			"componentType":5126,
			"count":26,
			"type":"VEC4"
		},
		{
			"bufferView":124,
			"componentType":5126,
			"count":26,
			"type":"VEC3"
		},
		{
			"bufferView":125,
			"componentType":5126,
			"count":26,
			"type":"VEC3"
		},
		{
			"bufferView":126,
			"componentType":5126,
			"count":26,
			"type":"VEC4"
		},
		{
			"bufferView":127,
			"componentType":5126,
			"count":26,
			"type":"VEC3"
		},
		{
			"bufferView":128,
			"componentType":5126,
			"count":1,
			"type":"VEC3"
		},
		{
			"bufferView":129,
			"componentType":5126,
			"count":1,
			"type":"VEC4"
		},
		{
			"bufferView":130,
			"componentType":5126,
			"count":1,
			"type":"VEC3"
		},
		{
			"bufferView":131,
			"componentType":5126,
			"count":1,
			"type":"VEC3"
		},
		{
			"bufferView":132,
			"componentType":5126,
			"count":1,
			"type":"VEC4"
		},
		{
			"bufferView":133,
			"componentType":5126,
			"count":1,
			"type":"VEC3"
		},
		{
			"bufferView":134,
			"componentType":5126,
			"count":1,
			"type":"VEC3"
		},
		{
			"bufferView":135,
			"componentType":5126,
			"count":1,
			"type":"VEC4"
		},
		{
			"bufferView":136,
			"componentType":5126,
			"count":1,
			"type":"VEC3"
		},
		{
			"bufferView":137,
			"componentType":5126,
			"count":1,
			"type":"VEC3"
		},
		{
			"bufferView":138,
			"componentType":5126,
			"count":1,
			"type":"VEC4"
		},
		{
			"bufferView":139,
			"componentType":5126,
			"count":1,
			"type":"VEC3"
		},
		{
			"bufferView":140,
			"componentType":5126,
			"count":1,
			"type":"VEC3"
		},
		{
			"bufferView":141,
			"componentType":5126,
			"count":1,
			"type":"VEC4"
		},
		{
			"bufferView":142,
			"componentType":5126,
			"count":1,
			"type":"VEC3"
		},
		{
			"bufferView":143,
			"componentType":5126,
			"count":1,
			"type":"VEC3"
		},
		{
			"bufferView":144,
			"componentType":5126,
			"count":1,
			"type":"VEC4"
		},
		{
			"bufferView":145,
			"componentType":5126,
			"count":1,
			"type":"VEC3"
		},
		{
			"bufferView":146,
			"componentType":5126,
			"count":1,
			"type":"VEC3"
		},
		{
			"bufferView":147,
			"componentType":5126,
			"count":1,
			"type":"VEC4"
		},
		{
			"bufferView":148,
			"componentType":5126,
			"count":1,
			"type":"VEC3"
		},
		{
			"bufferView":149,
			"componentType":5126,
			"count":1,
			"type":"VEC3"
		},
		{
			"bufferView":150,
			"componentType":5126,
			"count":1,
			"type":"VEC4"
		},
		{
			"bufferView":151,
			"componentType":5126,
			"count":1,
			"type":"VEC3"
		},
		{
			"bufferView":152,
			"componentType":5126,
			"count":1,
			"type":"VEC3"
		},
		{
			"bufferView":153,
			"componentType":5126,
			"count":1,
			"type":"VEC4"
		},
		{
			"bufferView":154,
			"componentType":5126,
			"count":1,
			"type":"VEC3"
		},
		{
			"bufferView":155,
			"componentType":5126,
			"count":1,
			"type":"VEC3"
		},
		{
			"bufferView":156,
			"componentType":5126,
			"count":1,
			"type":"VEC4"
		},
		{
			"bufferView":157,
			"componentType":5126,
			"count":1,
			"type":"VEC3"
		},
		{
			"bufferView":158,
			"componentType":5126,
			"count":1,
			"type":"VEC3"
		},
		{
			"bufferView":159,
			"componentType":5126,
			"count":1,
			"type":"VEC4"
		},
		{
			"bufferView":160,
			"componentType":5126,
			"count":1,
			"type":"VEC3"
		},
		{
			"bufferView":161,
			"componentType":5126,
			"count":1,
			"type":"VEC3"
		},
		{
			"bufferView":162,
			"componentType":5126,
			"count":1,
			"type":"VEC4"
		},
		{
			"bufferView":163,
			"componentType":5126,
			"count":1,
			"type":"VEC3"
		}
	],
	"bufferViews":[
		{
			"buffer":0,
			"byteLength":7620,
			"byteOffset":0,
			"target":34962
		},
		{
			"buffer":0,
			"byteLength":5080,
			"byteOffset":7620,
			"target":34962
		},
		{
			"buffer":0,
			"byteLength":7620,
			"byteOffset":12700,
			"target":34962
		},
		{
			"buffer":0,
			"byteLength":2540,
			"byteOffset":20320,
			"target":34962
		},
		{
			"buffer":0,
			"byteLength":10160,
			"byteOffset":22860,
			"target":34962
		},
		{
			"buffer":0,
			"byteLength":3048,
			"byteOffset":33020,
			"target":34963
		},
		{
			"buffer":0,
			"byteLength":384,
			"byteOffset":36068
		},
		{
			"buffer":0,
			"byteLength":20272,
			"byteOffset":36452,
			"target":34962
		},
		{
			"buffer":0,
			"byteLength":30408,
			"byteOffset":56724,
			"target":34962
		},
		{
			"buffer":0,
			"byteLength":20272,
			"byteOffset":87132,
			"target":34962
		},
		{
			"buffer":0,
			"byteLength":30408,
			"byteOffset":107404,
			"target":34962
		},
		{
			"buffer":0,
			"byteLength":10136,
			"byteOffset":137812,
			"target":34962
		},
		{
			"buffer":0,
			"byteLength":40544,
			"byteOffset":147948,
			"target":34962
		},
		{
			"buffer":0,
			"byteLength":24576,
			"byteOffset":188492,
			"target":34963
		},
		{
			"buffer":0,
			"byteLength":24,
			"byteOffset":213068
		},
		{
			"buffer":0,
			"byteLength":72,
			"byteOffset":213092
		},
		{
			"buffer":0,
			"byteLength":96,
			"byteOffset":213164
		},
		{
			"buffer":0,
			"byteLength":72,
			"byteOffset":213260
		},
		{
			"buffer":0,
			"byteLength":72,
			"byteOffset":213332
		},
		{
			"buffer":0,
			"byteLength":96,
			"byteOffset":213404
		},
		{
			"buffer":0,
			"byteLength":72,
			"byteOffset":213500
		},
		{
			"buffer":0,
			"byteLength":72,
			"byteOffset":213572
		},
		{
			"buffer":0,
			"byteLength":96,
			"byteOffset":213644
		},
		{
			"buffer":0,
			"byteLength":72,
			"byteOffset":213740
		},
		{
			"buffer":0,
			"byteLength":72,
			"byteOffset":213812
		},
		{
			"buffer":0,
			"byteLength":96,
			"byteOffset":213884
		},
		{
			"buffer":0,
			"byteLength":72,
			"byteOffset":213980
		},
		{
			"buffer":0,
			"byteLength":72,
			"byteOffset":214052
		},
		{
			"buffer":0,
			"byteLength":96,
			"byteOffset":214124
		},
		{
			"buffer":0,
			"byteLength":72,
			"byteOffset":214220
		},
		{
			"buffer":0,
			"byteLength":72,
			"byteOffset":214292
		},
		{
			"buffer":0,
			"byteLength":96,
			"byteOffset":214364
		},
		{
			"buffer":0,
			"byteLength":72,
			"byteOffset":214460
		},
		{
			"buffer":0,
			"byteLength":4,
			"byteOffset":214532
		},
		{
			"buffer":0,
			"byteLength":12,
			"byteOffset":214536
		},
		{
			"buffer":0,
			"byteLength":16,
			"byteOffset":214548
		},
		{
			"buffer":0,
			"byteLength":12,
			"byteOffset":214564
		},
		{
			"buffer":0,
			"byteLength":12,
			"byteOffset":214576
		},
		{
			"buffer":0,
			"byteLength":16,
			"byteOffset":214588
		},
		{
			"buffer":0,
			"byteLength":12,
			"byteOffset":214604
		},
		{
			"buffer":0,
			"byteLength":12,
			"byteOffset":214616
		},
		{
			"buffer":0,
			"byteLength":16,
			"byteOffset":214628
		},
		{
			"buffer":0,
			"byteLength":12,
			"byteOffset":214644
		},
		{
			"buffer":0,
			"byteLength":12,
			"byteOffset":214656
		},
		{
			"buffer":0,
			"byteLength":16,
			"byteOffset":214668
		},
		{
			"buffer":0,
			"byteLength":12,
			"byteOffset":214684
		},
		{
			"buffer":0,
			"byteLength":12,
			"byteOffset":214696
		},
		{
			"buffer":0,
			"byteLength":16,
			"byteOffset":214708
		},
		{
			"buffer":0,
			"byteLength":12,
			"byteOffset":214724
		},
		{
			"buffer":0,
			"byteLength":12,
			"byteOffset":214736
		},
		{
			"buffer":0,
			"byteLength":16,
			"byteOffset":214748
		},
		{
			"buffer":0,
			"byteLength":12,
			"byteOffset":214764
		},
		{
			"buffer":0,
			"byteLength":164,
			"byteOffset":214776
		},
		{
			"buffer":0,
			"byteLength":492,
			"byteOffset":214940
		},
		{
			"buffer":0,
			"byteLength":656,
			"byteOffset":215432
		},
		{
			"buffer":0,
			"byteLength":492,
			"byteOffset":216088
		},
		{
			"buffer":0,
			"byteLength":492,
			"byteOffset":216580
		},
		{
			"buffer":0,
			"byteLength":656,
			"byteOffset":217072
		},
		{
			"buffer":0,
			"byteLength":492,
			"byteOffset":217728
		},
		{
			"buffer":0,
			"byteLength":492,
			"byteOffset":218220
		},
		{
			"buffer":0,
			"byteLength":656,
			"byteOffset":218712
		},
		{
			"buffer":0,
			"byteLength":492,
			"byteOffset":219368
		},
		{
			"buffer":0,
			"byteLength":492,
			"byteOffset":219860
		},
		{
			"buffer":0,
			"byteLength":656,
			"byteOffset":220352
		},
		{
			"buffer":0,
			"byteLength":492,
			"byteOffset":221008
		},
		{
			"buffer":0,
			"byteLength":492,
			"byteOffset":221500
		},
		{
			"buffer":0,
			"byteLength":656,
			"byteOffset":221992
		},
		{
			"buffer":0,
			"byteLength":492,
			"byteOffset":222648
		},
		{
			"buffer":0,
			"byteLength":492,
			"byteOffset":223140
		},
		{
			"buffer":0,
			"byteLength":656,
			"byteOffset":223632
		},
		{
			"buffer":0,
			"byteLength":492,
			"byteOffset":224288
		},
		{
			"buffer":0,
			"byteLength":32,
			"byteOffset":224780
		},
		{
			"buffer":0,
			"byteLength":96,
			"byteOffset":224812
		},
		{
			"buffer":0,
			"byteLength":128,
			"byteOffset":224908
		},
		{
			"buffer":0,
			"byteLength":96,
			"byteOffset":225036
		},
		{
			"buffer":0,
			"byteLength":96,
			"byteOffset":225132
		},
		{
			"buffer":0,
			"byteLength":128,
			"byteOffset":225228
		},
		{
			"buffer":0,
			"byteLength":96,
			"byteOffset":225356
		},
		{
			"buffer":0,
			"byteLength":96,
			"byteOffset":225452
		},
		{
			"buffer":0,
			"byteLength":128,
			"byteOffset":225548
		},
		{
			"buffer":0,
			"byteLength":96,
			"byteOffset":225676
		},
		{
			"buffer":0,
			"byteLength":96,
			"byteOffset":225772
		},
		{
			"buffer":0,
			"byteLength":128,
			"byteOffset":225868
		},
		{
			"buffer":0,
			"byteLength":96,
			"byteOffset":225996
		},
		{
			"buffer":0,
			"byteLength":96,
			"byteOffset":226092
		},
		{
			"buffer":0,
			"byteLength":128,
			"byteOffset":226188
		},
		{
			"buffer":0,
			"byteLength":96,
			"byteOffset":226316
		},
		{
			"buffer":0,
			"byteLength":96,
			"byteOffset":226412
		},
		{
			"buffer":0,
			"byteLength":128,
			"byteOffset":226508
		},
		{
			"buffer":0,
			"byteLength":96,
			"byteOffset":226636
		},
		{
			"buffer":0,
			"byteLength":124,
			"byteOffset":226732
		},
		{
			"buffer":0,
			"byteLength":372,
			"byteOffset":226856
		},
		{
			"buffer":0,
			"byteLength":496,
			"byteOffset":227228
		},
		{
			"buffer":0,
			"byteLength":372,
			"byteOffset":227724
		},
		{
			"buffer":0,
			"byteLength":372,
			"byteOffset":228096
		},
		{
			"buffer":0,
			"byteLength":496,
			"byteOffset":228468
		},
		{
			"buffer":0,
			"byteLength":372,
			"byteOffset":228964
		},
		{
			"buffer":0,
			"byteLength":372,
			"byteOffset":229336
		},
		{
			"buffer":0,
			"byteLength":496,
			"byteOffset":229708
		},
		{
			"buffer":0,
			"byteLength":372,
			"byteOffset":230204
		},
		{
			"buffer":0,
			"byteLength":372,
			"byteOffset":230576
		},
		{
			"buffer":0,
			"byteLength":496,
			"byteOffset":230948
		},
		{
			"buffer":0,
			"byteLength":372,
			"byteOffset":231444
		},
		{
			"buffer":0,
			"byteLength":372,
			"byteOffset":231816
		},
		{
			"buffer":0,
			"byteLength":496,
			"byteOffset":232188
		},
		{
			"buffer":0,
			"byteLength":372,
			"byteOffset":232684
		},
		{
			"buffer":0,
			"byteLength":372,
			"byteOffset":233056
		},
		{
			"buffer":0,
			"byteLength":496,
			"byteOffset":233428
		},
		{
			"buffer":0,
			"byteLength":372,
			"byteOffset":233924
		},
		{
			"buffer":0,
			"byteLength":104,
			"byteOffset":234296
		},
		{
			"buffer":0,
			"byteLength":312,
			"byteOffset":234400
		},
		{
			"buffer":0,
			"byteLength":416,
			"byteOffset":234712
		},
		{
			"buffer":0,
			"byteLength":312,
			"byteOffset":235128
		},
		{
			"buffer":0,
			"byteLength":312,
			"byteOffset":235440
		},
		{
			"buffer":0,
			"byteLength":416,
			"byteOffset":235752
		},
		{
			"buffer":0,
			"byteLength":312,
			"byteOffset":236168
		},
		{
			"buffer":0,
			"byteLength":312,
			"byteOffset":236480
		},
		{
			"buffer":0,
			"byteLength":416,
			"byteOffset":236792
		},
		{
			"buffer":0,
			"byteLength":312,
			"byteOffset":237208
		},
		{
			"buffer":0,
			"byteLength":312,
			"byteOffset":237520
		},
		{
			"buffer":0,
			"byteLength":416,
			"byteOffset":237832
		},
		{
			"buffer":0,
			"byteLength":312,
			"byteOffset":238248
		},
		{
			"buffer":0,
			"byteLength":312,
			"byteOffset":238560
		},
		{
			"buffer":0,
			"byteLength":416,
			"byteOffset":238872
		},
		{
			"buffer":0,
			"byteLength":312,
			"byteOffset":239288
		},
		{
			"buffer":0,
			"byteLength":312,
			"byteOffset":239600
		},
		{
			"buffer":0,
			"byteLength":416,
			"byteOffset":239912
		},
		{
			"buffer":0,
			"byteLength":312,
			"byteOffset":240328
		},
		{
			"buffer":0,
			"byteLength":12,
			"byteOffset":240640
		},
		{
			"buffer":0,
			"byteLength":16,
			"byteOffset":240652
		},
		{
			"buffer":0,
			"byteLength":12,
			"byteOffset":240668
		},
		{
			"buffer":0,
			"byteLength":12,
			"byteOffset":240680
		},
		{
			"buffer":0,
			"byteLength":16,
			"byteOffset":240692
		},
		{
			"buffer":0,
			"byteLength":12,
			"byteOffset":240708
		},
		{
			"buffer":0,
			"byteLength":12,
			"byteOffset":240720
		},
		{
			"buffer":0,
			"byteLength":16,
			"byteOffset":240732
		},
		{
			"buffer":0,
			"byteLength":12,
			"byteOffset":240748
		},
		{
			"buffer":0,
			"byteLength":12,
			"byteOffset":240760
		},
		{
			"buffer":0,
			"byteLength":16,
			"byteOffset":240772
		},
		{
			"buffer":0,
			"byteLength":12,
			"byteOffset":240788
		},
		{
			"buffer":0,
			"byteLength":12,
			"byteOffset":240800
		},
		{
			"buffer":0,
			"byteLength":16,
			"byteOffset":240812
		},
		{
			"buffer":0,
			"byteLength":12,
			"byteOffset":240828
		},
		{
			"buffer":0,
			"byteLength":12,
			"byteOffset":240840
		},
		{
			"buffer":0,
			"byteLength":16,
			"byteOffset":240852
		},
		{
			"buffer":0,
			"byteLength":12,
			"byteOffset":240868
		},
		{
			"buffer":0,
			"byteLength":12,
			"byteOffset":240880
		},
		{
			"buffer":0,
			"byteLength":16,
			"byteOffset":240892
		},
		{
			"buffer":0,
			"byteLength":12,
			"byteOffset":240908
		},
		{
			"buffer":0,
			"byteLength":12,
			"byteOffset":240920
		},
		{
			"buffer":0,
			"byteLength":16,
			"byteOffset":240932
		},
		{
			"buffer":0,
			"byteLength":12,
			"byteOffset":240948
		},
		{
			"buffer":0,
			"byteLength":12,
			"byteOffset":240960
		},
		{
			"buffer":0,
			"byteLength":16,
			"byteOffset":240972
		},
		{
			"buffer":0,
			"byteLength":12,
			"byteOffset":240988
		},
		{
			"buffer":0,
			"byteLength":12,
			"byteOffset":241000
		},
		{
			"buffer":0,
			"byteLength":16,
			"byteOffset":241012
		},
		{
			"buffer":0,
			"byteLength":12,
			"byteOffset":241028
		},
		{
			"buffer":0,
			"byteLength":12,
			"byteOffset":241040
		},
		{
			"buffer":0,
			"byteLength":16,
			"byteOffset":241052
		},
		{
			"buffer":0,
			"byteLength":12,
			"byteOffset":241068
		},
		{
			"buffer":0,
			"byteLength":12,
			"byteOffset":241080
		},
		{
			"buffer":0,
			"byteLength":16,
			"byteOffset":241092
		},
		{
			"buffer":0,
			"byteLength":12,
			"byteOffset":241108
		}
	],
	"samplers":[
		{
			"magFilter":9729,
			"minFilter":9987
		}
	],
	"buffers":[
		{
			"byteLength":241120,
			"uri":"Spear.bin"
		}
	]
}
