{
	"asset":{
		"generator":"Khronos glTF Blender I/O v3.5.30",
		"version":"2.0"
	},
	"scene":0,
	"scenes":[
		{
			"name":"Scene",
			"nodes":[
				5,
				6
			]
		}
	],
	"nodes":[
		{
			"name":"Bone.003",
			"rotation":[
				-3.343116646551845e-15,
				1.736465079260553e-23,
				-4.0599957110211517e-22,
				1
			],
			"translation":[
				4.276328886701127e-22,
				0.5247917771339417,
				-5.329070518200751e-15
			]
		},
		{
			"children":[
				0
			],
			"name":"Bone.002",
			"rotation":[
				1.374128421319969e-15,
				1.736464763716191e-23,
				2.5389312791872944e-22,
				1
			],
			"translation":[
				-8.519960309296185e-23,
				0.49999988079071045,
				1.807581861967833e-15
			]
		},
		{
			"children":[
				1
			],
			"name":"Bone.001",
			"rotation":[
				1.319117495983624e-16,
				1.736465079260553e-23,
				-1.0587913102856203e-22,
				1
			],
			"translation":[
				-1.0587911840678754e-22,
				0.5199997425079346,
				-1.7763568394002505e-15
			]
		},
		{
			"children":[
				2
			],
			"name":"Bone",
			"rotation":[
				-8.557136332854043e-09,
				2.9642793109019294e-08,
				-5.073148195275574e-16,
				1
			],
			"translation":[
				0,
				-1.0186114311218262,
				0
			]
		},
		{
			"mesh":0,
			"name":"\u7acb\u65b9\u4f53",
			"skin":0
		},
		{
			"children":[
				4,
				3
			],
			"name":"\u30a2\u30fc\u30de\u30c1\u30e5\u30a2"
		},
		{
			"mesh":1,
			"name":"\u7acb\u65b9\u4f53.001",
			"translation":[
				2.669999837875366,
				0,
				0
			]
		}
	],
	"animations":[
		{
			"channels":[
				{
					"sampler":0,
					"target":{
						"node":3,
						"path":"translation"
					}
				},
				{
					"sampler":1,
					"target":{
						"node":3,
						"path":"rotation"
					}
				},
				{
					"sampler":2,
					"target":{
						"node":3,
						"path":"scale"
					}
				},
				{
					"sampler":3,
					"target":{
						"node":2,
						"path":"translation"
					}
				},
				{
					"sampler":4,
					"target":{
						"node":2,
						"path":"rotation"
					}
				},
				{
					"sampler":5,
					"target":{
						"node":2,
						"path":"scale"
					}
				},
				{
					"sampler":6,
					"target":{
						"node":1,
						"path":"translation"
					}
				},
				{
					"sampler":7,
					"target":{
						"node":1,
						"path":"rotation"
					}
				},
				{
					"sampler":8,
					"target":{
						"node":1,
						"path":"scale"
					}
				},
				{
					"sampler":9,
					"target":{
						"node":0,
						"path":"translation"
					}
				},
				{
					"sampler":10,
					"target":{
						"node":0,
						"path":"rotation"
					}
				},
				{
					"sampler":11,
					"target":{
						"node":0,
						"path":"scale"
					}
				}
			],
			"name":"\u30a2\u30fc\u30de\u30c1\u30e5\u30a2Action.002",
			"samplers":[
				{
					"input":13,
					"interpolation":"LINEAR",
					"output":14
				},
				{
					"input":13,
					"interpolation":"LINEAR",
					"output":15
				},
				{
					"input":13,
					"interpolation":"LINEAR",
					"output":16
				},
				{
					"input":13,
					"interpolation":"LINEAR",
					"output":17
				},
				{
					"input":13,
					"interpolation":"LINEAR",
					"output":18
				},
				{
					"input":13,
					"interpolation":"LINEAR",
					"output":19
				},
				{
					"input":13,
					"interpolation":"LINEAR",
					"output":20
				},
				{
					"input":13,
					"interpolation":"LINEAR",
					"output":21
				},
				{
					"input":13,
					"interpolation":"LINEAR",
					"output":22
				},
				{
					"input":13,
					"interpolation":"LINEAR",
					"output":23
				},
				{
					"input":13,
					"interpolation":"LINEAR",
					"output":24
				},
				{
					"input":13,
					"interpolation":"LINEAR",
					"output":25
				}
			]
		}
	],
	"materials":[
		{
			"doubleSided":true,
			"name":"\u30de\u30c6\u30ea\u30a2\u30eb.001",
			"pbrMetallicRoughness":{
				"baseColorTexture":{
					"index":0
				},
				"metallicFactor":0,
				"roughnessFactor":0.5
			}
		},
		{
			"doubleSided":true,
			"name":"\u30de\u30c6\u30ea\u30a2\u30eb",
			"pbrMetallicRoughness":{
				"baseColorTexture":{
					"index":1
				},
				"metallicFactor":0,
				"roughnessFactor":0.5
			}
		}
	],
	"meshes":[
		{
			"extras":{
				"targetNames":[
					"Armature"
				]
			},
			"name":"\u7acb\u65b9\u4f53",
			"primitives":[
				{
					"attributes":{
						"POSITION":0,
						"TEXCOORD_0":1,
						"NORMAL":2,
						"JOINTS_0":3,
						"WEIGHTS_0":4
					},
					"indices":5,
					"material":0,
					"targets":[
						{
							"POSITION":6,
							"NORMAL":7
						}
					]
				}
			],
			"weights":[
				0
			]
		},
		{
			"name":"\u7acb\u65b9\u4f53.001",
			"primitives":[
				{
					"attributes":{
						"POSITION":9,
						"TEXCOORD_0":10,
						"NORMAL":11
					},
					"indices":12,
					"material":1
				}
			]
		}
	],
	"textures":[
		{
			"sampler":0,
			"source":0
		},
		{
			"sampler":0,
			"source":1
		}
	],
	"images":[
		{
			"mimeType":"image/png",
			"name":"uvChecker",
			"uri":"uvChecker.png"
		},
		{
			"mimeType":"image/png",
			"name":"checkerBoard",
			"uri":"checkerBoard.png"
		}
	],
	"skins":[
		{
			"inverseBindMatrices":8,
			"joints":[
				3,
				2,
				1,
				0
			],
			"name":"\u30a2\u30fc\u30de\u30c1\u30e5\u30a2"
		}
	],
	"accessors":[
		{
			"bufferView":0,
			"componentType":5126,
			"count":439,
			"max":[
				0.30000001192092896,
				1.0200001001358032,
				0.3000001311302185
			],
			"min":[
				-0.30000001192092896,
				-1.0200001001358032,
				-0.30000001192092896
			],
			"type":"VEC3"
		},
		{
			"bufferView":1,
			"componentType":5126,
			"count":439,
			"type":"VEC2"
		},
		{
			"bufferView":2,
			"componentType":5126,
			"count":439,
			"type":"VEC3"
		},
		{
			"bufferView":3,
			"componentType":5121,
			"count":439,
			"type":"VEC4"
		},
		{
			"bufferView":4,
			"componentType":5126,
			"count":439,
			"type":"VEC4"
		},
		{
			"bufferView":5,
			"componentType":5123,
			"count":576,
			"type":"SCALAR"
		},
		{
			"bufferView":6,
			"componentType":5126,
			"count":439,
			"max":[
				0.020441323518753052,
				0.04976111650466919,
				0.514620304107666
			],
			"min":[
				-0.39718568325042725,
				-0.39383208751678467,
				-0.004382699728012085
			],
			"type":"VEC3"
		},
		{
			"bufferView":7,
			"componentType":5126,
			"count":439,
			"type":"VEC3"
		},
		{
			"bufferView":8,
			"componentType":5126,
			"count":4,
			"type":"MAT4"
		},
		{
			"bufferView":9,
			"componentType":5126,
			"count":24,
			"max":[
				1,
				1,
				1
			],
			"min":[
				-1,
				-1,
				-1
			],
			"type":"VEC3"
		},
		{
			"bufferView":10,
			"componentType":5126,
			"count":24,
			"type":"VEC2"
		},
		{
			"bufferView":11,
			"componentType":5126,
			"count":24,
			"type":"VEC3"
		},
		{
			"bufferView":12,
			"componentType":5123,
			"count":36,
			"type":"SCALAR"
		},
		{
			"bufferView":13,
			"componentType":5126,
			"count":40,
			"max":[
				1.6666666666666667
			],
			"min":[
				0.041666666666666664
			],
			"type":"SCALAR"
		},
		{
			"bufferView":14,
			"componentType":5126,
			"count":40,
			"type":"VEC3"
		},
		{
			"bufferView":15,
			"componentType":5126,
			"count":40,
			"type":"VEC4"
		},
		{
			"bufferView":16,
			"componentType":5126,
			"count":40,
			"type":"VEC3"
		},
		{
			"bufferView":17,
			"componentType":5126,
			"count":40,
			"type":"VEC3"
		},
		{
			"bufferView":18,
			"componentType":5126,
			"count":40,
			"type":"VEC4"
		},
		{
			"bufferView":19,
			"componentType":5126,
			"count":40,
			"type":"VEC3"
		},
		{
			"bufferView":20,
			"componentType":5126,
			"count":40,
			"type":"VEC3"
		},
		{
			"bufferView":21,
			"componentType":5126,
			"count":40,
			"type":"VEC4"
		},
		{
			"bufferView":22,
			"componentType":5126,
			"count":40,
			"type":"VEC3"
		},
		{
			"bufferView":23,
			"componentType":5126,
			"count":40,
			"type":"VEC3"
		},
		{
			"bufferView":24,
			"componentType":5126,
			"count":40,
			"type":"VEC4"
		},
		{
			"bufferView":25,
			"componentType":5126,
			"count":40,
			"type":"VEC3"
		}
	],
	"bufferViews":[
		{
			"buffer":0,
			"byteLength":5268,
			"byteOffset":0,
			"target":34962
		},
		{
			"buffer":0,
			"byteLength":3512,
			"byteOffset":5268,
			"target":34962
		},
		{
			"buffer":0,
			"byteLength":5268,
			"byteOffset":8780,
			"target":34962
		},
		{
			"buffer":0,
			"byteLength":1756,
			"byteOffset":14048,
			"target":34962
		},
		{
			"buffer":0,
			"byteLength":7024,
			"byteOffset":15804,
			"target":34962
		},
		{
			"buffer":0,
			"byteLength":1152,
			"byteOffset":22828,
			"target":34963
		},
		{
			"buffer":0,
			"byteLength":5268,
			"byteOffset":23980,
			"target":34962
		},
		{
			"buffer":0,
			"byteLength":5268,
			"byteOffset":29248,
			"target":34962
		},
		{
			"buffer":0,
			"byteLength":256,
			"byteOffset":34516
		},
		{
			"buffer":0,
			"byteLength":288,
			"byteOffset":34772,
			"target":34962
		},
		{
			"buffer":0,
			"byteLength":192,
			"byteOffset":35060,
			"target":34962
		},
		{
			"buffer":0,
			"byteLength":288,
			"byteOffset":35252,
			"target":34962
		},
		{
			"buffer":0,
			"byteLength":72,
			"byteOffset":35540,
			"target":34963
		},
		{
			"buffer":0,
			"byteLength":160,
			"byteOffset":35612
		},
		{
			"buffer":0,
			"byteLength":480,
			"byteOffset":35772
		},
		{
			"buffer":0,
			"byteLength":640,
			"byteOffset":36252
		},
		{
			"buffer":0,
			"byteLength":480,
			"byteOffset":36892
		},
		{
			"buffer":0,
			"byteLength":480,
			"byteOffset":37372
		},
		{
			"buffer":0,
			"byteLength":640,
			"byteOffset":37852
		},
		{
			"buffer":0,
			"byteLength":480,
			"byteOffset":38492
		},
		{
			"buffer":0,
			"byteLength":480,
			"byteOffset":38972
		},
		{
			"buffer":0,
			"byteLength":640,
			"byteOffset":39452
		},
		{
			"buffer":0,
			"byteLength":480,
			"byteOffset":40092
		},
		{
			"buffer":0,
			"byteLength":480,
			"byteOffset":40572
		},
		{
			"buffer":0,
			"byteLength":640,
			"byteOffset":41052
		},
		{
			"buffer":0,
			"byteLength":480,
			"byteOffset":41692
		}
	],
	"samplers":[
		{
			"magFilter":9729,
			"minFilter":9987
		}
	],
	"buffers":[
		{
			"byteLength":42172,
			"uri":"skin.bin"
		}
	]
}
