{
	"asset":{
		"generator":"Khronos glTF Blender I/O v3.5.30",
		"version":"2.0"
	},
	"scene":0,
	"scenes":[
		{
			"name":"Scene",
			"nodes":[
				5
			]
		}
	],
	"nodes":[
		{
			"name":"Bone.003",
			"rotation":[
				-3.343116646551845e-15,
				2.0050973032650936e-23,
				-4.689761673232087e-22,
				1
			],
			"translation":[
				5.564001309769531e-22,
				0.5247917175292969,
				-5.329070518200751e-15
			]
		},
		{
			"children":[
				0
			],
			"name":"Bone.002",
			"rotation":[
				1.256799561518451e-16,
				2.0050969877207315e-23,
				1.9786565158793854e-22,
				1
			],
			"translation":[
				1.903383786956431e-23,
				0.4999998211860657,
				-2.2794266474335245e-15
			]
		},
		{
			"children":[
				1
			],
			"name":"Bone.001",
			"rotation":[
				1.9082686684079517e-15,
				2.0050976188094557e-23,
				-1.137417013600126e-22,
				1
			],
			"translation":[
				-1.0587910578501306e-22,
				0.5199996829032898,
				-1.7763568394002505e-15
			]
		},
		{
			"children":[
				2
			],
			"name":"Bone",
			"rotation":[
				-8.557136332854043e-09,
				3.422855243684353e-08,
				-5.85796763134523e-16,
				1
			],
			"translation":[
				0,
				-1.0186114311218262,
				0
			]
		},
		{
			"mesh":0,
			"name":"\u7acb\u65b9\u4f53",
			"skin":0
		},
		{
			"children":[
				4,
				3
			],
			"name":"\u30a2\u30fc\u30de\u30c1\u30e5\u30a2"
		}
	],
	"animations":[
		{
			"channels":[
				{
					"sampler":0,
					"target":{
						"node":3,
						"path":"translation"
					}
				},
				{
					"sampler":1,
					"target":{
						"node":3,
						"path":"rotation"
					}
				},
				{
					"sampler":2,
					"target":{
						"node":3,
						"path":"scale"
					}
				},
				{
					"sampler":3,
					"target":{
						"node":2,
						"path":"translation"
					}
				},
				{
					"sampler":4,
					"target":{
						"node":2,
						"path":"rotation"
					}
				},
				{
					"sampler":5,
					"target":{
						"node":2,
						"path":"scale"
					}
				},
				{
					"sampler":6,
					"target":{
						"node":1,
						"path":"translation"
					}
				},
				{
					"sampler":7,
					"target":{
						"node":1,
						"path":"rotation"
					}
				},
				{
					"sampler":8,
					"target":{
						"node":1,
						"path":"scale"
					}
				},
				{
					"sampler":9,
					"target":{
						"node":0,
						"path":"translation"
					}
				},
				{
					"sampler":10,
					"target":{
						"node":0,
						"path":"rotation"
					}
				},
				{
					"sampler":11,
					"target":{
						"node":0,
						"path":"scale"
					}
				}
			],
			"name":"Action",
			"samplers":[
				{
					"input":9,
					"interpolation":"LINEAR",
					"output":10
				},
				{
					"input":9,
					"interpolation":"LINEAR",
					"output":11
				},
				{
					"input":9,
					"interpolation":"LINEAR",
					"output":12
				},
				{
					"input":9,
					"interpolation":"LINEAR",
					"output":13
				},
				{
					"input":9,
					"interpolation":"LINEAR",
					"output":14
				},
				{
					"input":9,
					"interpolation":"LINEAR",
					"output":15
				},
				{
					"input":9,
					"interpolation":"LINEAR",
					"output":16
				},
				{
					"input":9,
					"interpolation":"LINEAR",
					"output":17
				},
				{
					"input":9,
					"interpolation":"LINEAR",
					"output":18
				},
				{
					"input":9,
					"interpolation":"LINEAR",
					"output":19
				},
				{
					"input":9,
					"interpolation":"LINEAR",
					"output":20
				},
				{
					"input":9,
					"interpolation":"LINEAR",
					"output":21
				}
			]
		},
		{
			"channels":[
				{
					"sampler":0,
					"target":{
						"node":3,
						"path":"translation"
					}
				},
				{
					"sampler":1,
					"target":{
						"node":3,
						"path":"rotation"
					}
				},
				{
					"sampler":2,
					"target":{
						"node":3,
						"path":"scale"
					}
				},
				{
					"sampler":3,
					"target":{
						"node":2,
						"path":"translation"
					}
				},
				{
					"sampler":4,
					"target":{
						"node":2,
						"path":"rotation"
					}
				},
				{
					"sampler":5,
					"target":{
						"node":2,
						"path":"scale"
					}
				},
				{
					"sampler":6,
					"target":{
						"node":1,
						"path":"translation"
					}
				},
				{
					"sampler":7,
					"target":{
						"node":1,
						"path":"rotation"
					}
				},
				{
					"sampler":8,
					"target":{
						"node":1,
						"path":"scale"
					}
				},
				{
					"sampler":9,
					"target":{
						"node":0,
						"path":"translation"
					}
				},
				{
					"sampler":10,
					"target":{
						"node":0,
						"path":"rotation"
					}
				},
				{
					"sampler":11,
					"target":{
						"node":0,
						"path":"scale"
					}
				}
			],
			"name":"\u30a2\u30fc\u30de\u30c1\u30e5\u30a2Action.002",
			"samplers":[
				{
					"input":9,
					"interpolation":"LINEAR",
					"output":22
				},
				{
					"input":9,
					"interpolation":"LINEAR",
					"output":23
				},
				{
					"input":9,
					"interpolation":"LINEAR",
					"output":24
				},
				{
					"input":9,
					"interpolation":"LINEAR",
					"output":25
				},
				{
					"input":9,
					"interpolation":"LINEAR",
					"output":26
				},
				{
					"input":9,
					"interpolation":"LINEAR",
					"output":27
				},
				{
					"input":9,
					"interpolation":"LINEAR",
					"output":28
				},
				{
					"input":9,
					"interpolation":"LINEAR",
					"output":29
				},
				{
					"input":9,
					"interpolation":"LINEAR",
					"output":30
				},
				{
					"input":9,
					"interpolation":"LINEAR",
					"output":31
				},
				{
					"input":9,
					"interpolation":"LINEAR",
					"output":32
				},
				{
					"input":9,
					"interpolation":"LINEAR",
					"output":33
				}
			]
		}
	],
	"materials":[
		{
			"doubleSided":true,
			"name":"\u30de\u30c6\u30ea\u30a2\u30eb.001",
			"pbrMetallicRoughness":{
				"baseColorTexture":{
					"index":0
				},
				"metallicFactor":0,
				"roughnessFactor":0.5
			}
		}
	],
	"meshes":[
		{
			"extras":{
				"targetNames":[
					"Armature"
				]
			},
			"name":"\u7acb\u65b9\u4f53",
			"primitives":[
				{
					"attributes":{
						"POSITION":0,
						"TEXCOORD_0":1,
						"NORMAL":2,
						"JOINTS_0":3,
						"WEIGHTS_0":4
					},
					"indices":5,
					"material":0,
					"targets":[
						{
							"POSITION":6,
							"NORMAL":7
						}
					]
				}
			],
			"weights":[
				0
			]
		}
	],
	"textures":[
		{
			"sampler":0,
			"source":0
		}
	],
	"images":[
		{
			"mimeType":"image/png",
			"name":"uvChecker",
			"uri":"uvChecker.png"
		}
	],
	"skins":[
		{
			"inverseBindMatrices":8,
			"joints":[
				3,
				2,
				1,
				0
			],
			"name":"\u30a2\u30fc\u30de\u30c1\u30e5\u30a2"
		}
	],
	"accessors":[
		{
			"bufferView":0,
			"componentType":5126,
			"count":439,
			"max":[
				0.30000001192092896,
				1.0200001001358032,
				0.3000001907348633
			],
			"min":[
				-0.30000001192092896,
				-1.0200001001358032,
				-0.30000001192092896
			],
			"type":"VEC3"
		},
		{
			"bufferView":1,
			"componentType":5126,
			"count":439,
			"type":"VEC2"
		},
		{
			"bufferView":2,
			"componentType":5126,
			"count":439,
			"type":"VEC3"
		},
		{
			"bufferView":3,
			"componentType":5121,
			"count":439,
			"type":"VEC4"
		},
		{
			"bufferView":4,
			"componentType":5126,
			"count":439,
			"type":"VEC4"
		},
		{
			"bufferView":5,
			"componentType":5123,
			"count":576,
			"type":"SCALAR"
		},
		{
			"bufferView":6,
			"componentType":5126,
			"count":439,
			"max":[
				0.020441323518753052,
				0.04976111650466919,
				0.514620304107666
			],
			"min":[
				-0.39718568325042725,
				-0.39383208751678467,
				-0.004382699728012085
			],
			"type":"VEC3"
		},
		{
			"bufferView":7,
			"componentType":5126,
			"count":439,
			"type":"VEC3"
		},
		{
			"bufferView":8,
			"componentType":5126,
			"count":4,
			"type":"MAT4"
		},
		{
			"bufferView":9,
			"componentType":5126,
			"count":40,
			"max":[
				1.6666666666666667
			],
			"min":[
				0.041666666666666664
			],
			"type":"SCALAR"
		},
		{
			"bufferView":10,
			"componentType":5126,
			"count":40,
			"type":"VEC3"
		},
		{
			"bufferView":11,
			"componentType":5126,
			"count":40,
			"type":"VEC4"
		},
		{
			"bufferView":12,
			"componentType":5126,
			"count":40,
			"type":"VEC3"
		},
		{
			"bufferView":13,
			"componentType":5126,
			"count":40,
			"type":"VEC3"
		},
		{
			"bufferView":14,
			"componentType":5126,
			"count":40,
			"type":"VEC4"
		},
		{
			"bufferView":15,
			"componentType":5126,
			"count":40,
			"type":"VEC3"
		},
		{
			"bufferView":16,
			"componentType":5126,
			"count":40,
			"type":"VEC3"
		},
		{
			"bufferView":17,
			"componentType":5126,
			"count":40,
			"type":"VEC4"
		},
		{
			"bufferView":18,
			"componentType":5126,
			"count":40,
			"type":"VEC3"
		},
		{
			"bufferView":19,
			"componentType":5126,
			"count":40,
			"type":"VEC3"
		},
		{
			"bufferView":20,
			"componentType":5126,
			"count":40,
			"type":"VEC4"
		},
		{
			"bufferView":21,
			"componentType":5126,
			"count":40,
			"type":"VEC3"
		},
		{
			"bufferView":22,
			"componentType":5126,
			"count":40,
			"type":"VEC3"
		},
		{
			"bufferView":23,
			"componentType":5126,
			"count":40,
			"type":"VEC4"
		},
		{
			"bufferView":24,
			"componentType":5126,
			"count":40,
			"type":"VEC3"
		},
		{
			"bufferView":25,
			"componentType":5126,
			"count":40,
			"type":"VEC3"
		},
		{
			"bufferView":26,
			"componentType":5126,
			"count":40,
			"type":"VEC4"
		},
		{
			"bufferView":27,
			"componentType":5126,
			"count":40,
			"type":"VEC3"
		},
		{
			"bufferView":28,
			"componentType":5126,
			"count":40,
			"type":"VEC3"
		},
		{
			"bufferView":29,
			"componentType":5126,
			"count":40,
			"type":"VEC4"
		},
		{
			"bufferView":30,
			"componentType":5126,
			"count":40,
			"type":"VEC3"
		},
		{
			"bufferView":31,
			"componentType":5126,
			"count":40,
			"type":"VEC3"
		},
		{
			"bufferView":32,
			"componentType":5126,
			"count":40,
			"type":"VEC4"
		},
		{
			"bufferView":33,
			"componentType":5126,
			"count":40,
			"type":"VEC3"
		}
	],
	"bufferViews":[
		{
			"buffer":0,
			"byteLength":5268,
			"byteOffset":0,
			"target":34962
		},
		{
			"buffer":0,
			"byteLength":3512,
			"byteOffset":5268,
			"target":34962
		},
		{
			"buffer":0,
			"byteLength":5268,
			"byteOffset":8780,
			"target":34962
		},
		{
			"buffer":0,
			"byteLength":1756,
			"byteOffset":14048,
			"target":34962
		},
		{
			"buffer":0,
			"byteLength":7024,
			"byteOffset":15804,
			"target":34962
		},
		{
			"buffer":0,
			"byteLength":1152,
			"byteOffset":22828,
			"target":34963
		},
		{
			"buffer":0,
			"byteLength":5268,
			"byteOffset":23980,
			"target":34962
		},
		{
			"buffer":0,
			"byteLength":5268,
			"byteOffset":29248,
			"target":34962
		},
		{
			"buffer":0,
			"byteLength":256,
			"byteOffset":34516
		},
		{
			"buffer":0,
			"byteLength":160,
			"byteOffset":34772
		},
		{
			"buffer":0,
			"byteLength":480,
			"byteOffset":34932
		},
		{
			"buffer":0,
			"byteLength":640,
			"byteOffset":35412
		},
		{
			"buffer":0,
			"byteLength":480,
			"byteOffset":36052
		},
		{
			"buffer":0,
			"byteLength":480,
			"byteOffset":36532
		},
		{
			"buffer":0,
			"byteLength":640,
			"byteOffset":37012
		},
		{
			"buffer":0,
			"byteLength":480,
			"byteOffset":37652
		},
		{
			"buffer":0,
			"byteLength":480,
			"byteOffset":38132
		},
		{
			"buffer":0,
			"byteLength":640,
			"byteOffset":38612
		},
		{
			"buffer":0,
			"byteLength":480,
			"byteOffset":39252
		},
		{
			"buffer":0,
			"byteLength":480,
			"byteOffset":39732
		},
		{
			"buffer":0,
			"byteLength":640,
			"byteOffset":40212
		},
		{
			"buffer":0,
			"byteLength":480,
			"byteOffset":40852
		},
		{
			"buffer":0,
			"byteLength":480,
			"byteOffset":41332
		},
		{
			"buffer":0,
			"byteLength":640,
			"byteOffset":41812
		},
		{
			"buffer":0,
			"byteLength":480,
			"byteOffset":42452
		},
		{
			"buffer":0,
			"byteLength":480,
			"byteOffset":42932
		},
		{
			"buffer":0,
			"byteLength":640,
			"byteOffset":43412
		},
		{
			"buffer":0,
			"byteLength":480,
			"byteOffset":44052
		},
		{
			"buffer":0,
			"byteLength":480,
			"byteOffset":44532
		},
		{
			"buffer":0,
			"byteLength":640,
			"byteOffset":45012
		},
		{
			"buffer":0,
			"byteLength":480,
			"byteOffset":45652
		},
		{
			"buffer":0,
			"byteLength":480,
			"byteOffset":46132
		},
		{
			"buffer":0,
			"byteLength":640,
			"byteOffset":46612
		},
		{
			"buffer":0,
			"byteLength":480,
			"byteOffset":47252
		}
	],
	"samplers":[
		{
			"magFilter":9729,
			"minFilter":9987
		}
	],
	"buffers":[
		{
			"byteLength":47732,
			"uri":"skin2.bin"
		}
	]
}
