# Blender 3.5.0
# www.blender.org
mtllib BackGround.mtl
o 円柱.001
v -7.332762 -17.573133 0.351494
v -12.963594 20.616098 -0.351495
v -9.204525 -17.850819 0.602916
v -14.531758 20.386581 0.889633
v -8.900434 -17.805981 -0.889634
v -14.835849 20.341743 -0.602917
v -1.077777 -11.843465 -5.504170
v -1.384081 27.562107 -5.612289
v -2.121098 -11.850491 -3.264583
v -3.263385 27.542419 -3.264585
v -4.000399 -11.870179 -5.612288
v -4.306704 27.535395 -5.504173
v 5.180983 -18.590237 -7.791585
v 6.756020 20.691151 -8.727357
v 6.851482 20.701717 -6.998558
v 3.086740 -18.486383 -6.998559
v 4.757240 20.805571 -7.791586
v 3.182203 -18.475817 -8.727346
v 15.379434 -20.312534 -11.108277
v 19.012300 32.214653 -10.004434
v 16.691975 -20.370403 -8.143557
v 12.710020 -20.214943 -8.121871
v 16.342884 32.312244 -7.018027
v 15.030342 32.370113 -9.982746
v 1.308946 -78.089157 -40.331944
v 11.398440 93.781082 -40.331963
v 7.998334 -78.317879 -38.972290
v 15.766248 93.631737 -35.902924
v 10.006561 -78.386543 -34.318832
v 7.998338 -78.317879 -29.665382
v 15.004725 93.657776 -31.241795
v 11.398439 93.781082 -28.305737
v 1.308953 -78.089157 -28.305723
v 4.709054 94.009811 -29.665396
v -3.527651 -77.923775 -34.318821
v 2.700830 94.078484 -34.318848
v 4.709059 94.009804 -38.972301
v 25.794224 26.276804 -18.356321
v 19.011473 -31.753674 -17.540594
v 18.642361 -31.709793 -20.993036
v 26.371704 26.201757 -20.940964
v 29.773178 25.755766 -20.953169
v 22.595966 -32.228325 -20.289404
v 29.325838 25.809196 -17.540594
v 21.965609 -32.146233 -17.830700
v 3.928806 -203.713013 -38.260323
v -47.937645 206.256927 -38.335323
v 15.449116 -202.047226 -35.895618
v -41.727131 207.155655 -33.229202
v 18.907341 -201.545822 -27.802868
v -40.415958 207.346695 -25.123158
v 15.448469 -202.044357 -19.710209
v -47.938457 206.260651 -17.420816
v 3.927992 -203.709305 -17.345818
v -59.458767 204.594849 -19.785522
v -2.282518 -204.608032 -22.451935
v -3.593699 -204.799057 -30.557976
v -62.916992 204.093445 -27.878269
v -59.458118 204.591995 -35.970932
v 8.682461 -41.882259 -24.848532
v 37.598225 41.571724 -30.281441
v 12.754535 -43.077415 -23.252861
v 39.883919 41.052628 -27.080727
v 11.811193 -42.510548 -19.217661
v 37.431618 42.030594 -24.119614
v 8.515856 -41.423393 -18.686707
v 34.173962 43.013985 -24.981937
v 6.230162 -40.904297 -21.887417
v 33.451099 42.973583 -29.101398
v 23.172781 -199.771912 -63.079685
v 72.732834 210.228806 -75.588394
v 33.336227 -200.751373 -55.955463
v 81.502502 209.412399 -68.510078
v 31.592030 -200.195358 -44.627548
v 80.693336 209.826981 -58.188316
v 20.805347 -198.814224 -41.137508
v 70.365433 211.186478 -53.646217
v 12.035672 -197.997879 -48.215851
v 60.201954 212.165939 -60.770435
v 12.844859 -198.412415 -58.537605
v 61.946156 211.609924 -72.098366
vn 0.9494 0.1375 -0.2824
vn 0.9487 0.1424 0.2823
vn -0.3096 -0.0650 -0.9487
vn -0.3152 -0.0270 0.9487
vn -0.6992 -0.1156 0.7055
vn -0.7029 -0.0906 -0.7054
vn 0.8900 0.0478 -0.4534
vn 0.8376 0.0049 -0.5462
vn -0.8900 -0.0478 -0.4534
vn 0.1478 -0.0541 0.9875
vn -0.1478 0.0541 0.9875
vn 0.5442 -0.0049 -0.8389
vn 0.9905 -0.1366 0.0158
vn -0.5442 0.0049 -0.8389
vn 0.5732 -0.0373 0.8185
vn -0.5732 0.0373 0.8185
vn -0.9905 0.1366 0.0158
vn 0.9164 -0.0081 -0.4002
vn 0.8215 -0.1065 0.5602
vn 0.0990 -0.0396 -0.9943
vn -0.1854 -0.0073 0.9826
vn -0.9020 -0.0143 0.4315
vn -0.8111 0.0682 -0.5809
vn 0.3171 -0.0055 -0.9484
vn 0.6105 -0.0253 -0.7916
vn -0.3645 0.0060 -0.9312
vn 0.9547 -0.0288 -0.2962
vn 0.9993 -0.0370 0.0002
vn 0.8700 -0.0270 0.4923
vn 0.6390 -0.0476 0.7677
vn 0.2651 -0.0048 0.9642
vn -0.3269 -0.0187 0.9449
vn -0.6392 0.0473 0.7676
vn -0.9999 0.0159 -0.0000
vn -0.6108 0.0246 -0.7914
vn -0.8422 0.1365 0.5217
vn -0.6018 0.1070 0.7915
vn 0.5371 -0.0557 0.8417
vn 0.7686 -0.0941 -0.6327
vn 0.8186 -0.1130 -0.5631
vn -0.7062 0.0743 -0.7041
vn 0.2375 0.0359 -0.9707
vn 0.6210 0.0867 -0.7790
vn -0.2888 -0.0445 -0.9564
vn 0.8542 0.1254 -0.5046
vn 0.9900 0.1410 -0.0001
vn 0.9420 0.1390 0.3056
vn 0.6209 0.0867 0.7791
vn 0.2888 0.0445 0.9564
vn -0.2370 -0.0385 0.9707
vn -0.6210 -0.0866 0.7790
vn -0.8542 -0.1254 0.5046
vn -0.9900 -0.1410 0.0001
vn -0.9420 -0.1415 -0.3043
vn -0.6209 -0.0867 -0.7791
vn 0.3488 -0.1616 -0.9232
vn 0.8360 -0.2743 -0.4753
vn -0.3073 0.0249 -0.9513
vn 0.9485 -0.3148 0.0365
vn 0.6517 -0.2255 0.7241
vn 0.3553 -0.0450 0.9337
vn -0.3961 0.1788 0.9006
vn -0.6588 0.2646 0.7042
vn -0.9599 0.2749 -0.0553
vn -0.7812 0.2219 -0.5836
vn 0.2116 -0.0541 -0.9759
vn 0.9064 -0.1209 -0.4047
vn 0.0528 -0.0386 -0.9979
vn 0.8224 -0.0785 0.5635
vn 0.7733 -0.0366 0.6330
vn -0.1195 0.0095 0.9928
vn -0.2116 0.0541 0.9759
vn -0.9064 0.1209 0.4047
vn -0.9102 0.1269 0.3942
vn -0.8224 0.0786 -0.5635
vn -0.7284 0.0664 -0.6819
vn -0.8377 -0.0049 -0.5460
vn -0.9993 0.0362 -0.0000
vn -0.5824 0.0786 -0.8091
vn 0.6806 -0.0901 0.7271
vn 0.9121 -0.1112 -0.3945
vt 0.098812 0.229353
vt 0.907580 0.229353
vt 0.904454 0.994633
vt 0.095686 0.994633
vt 0.598812 0.229353
vt 0.654454 0.994633
vt 0.348812 0.229353
vt 0.404454 0.994633
vt 0.078228 0.229353
vt 1.001633 0.229353
vt 0.964472 0.994633
vt 0.093385 0.994633
vt 0.789659 0.229353
vt 0.713607 0.994633
vt 0.424601 0.229353
vt 0.425038 0.994633
vt 0.953158 0.229353
vt 0.080144 0.229353
vt 0.144737 0.994633
vt 0.001633 0.994633
vt 0.877208 0.994633
vt 0.626057 0.229353
vt 0.504185 0.994633
vt 0.358530 0.229353
vt 0.206594 0.229353
vt 0.969818 0.994633
vt 0.096697 0.994633
vt 0.001633 0.229353
vt 0.926022 0.229353
vt 0.568076 0.229353
vt 0.706594 0.994633
vt 0.426022 0.994633
vt 0.302526 0.229353
vt 0.200740 0.994633
vt 0.132869 0.229353
vt 0.042139 0.994633
vt 1.001633 0.994633
vt 0.001633 0.229353
vt 1.001633 0.229353
vt 0.870397 0.229352
vt 0.918300 0.994633
vt 0.802526 0.994633
vt 0.700740 0.229353
vt 0.632869 0.994633
vt 0.500134 0.229353
vt 0.501633 0.994633
vt 0.370396 0.994633
vt 0.076821 0.229353
vt 1.001633 0.229353
vt 0.151846 0.994633
vt 0.001633 0.994633
vt 0.882068 0.994633
vt 0.871729 0.229352
vt 0.615106 0.229353
vt 0.567547 0.994633
vt 0.351420 0.229353
vt 0.371730 0.994633
vt 0.302526 0.229353
vt 0.200741 0.994633
vt 0.132869 0.229353
vt 0.084966 0.994633
vt 1.001633 0.229353
vt 0.001633 0.229353
vt 0.001633 0.994633
vt 0.961127 0.994633
vt 0.870397 0.229352
vt 0.802526 0.994633
vt 0.700740 0.229353
vt 0.632869 0.994633
vt 0.584966 0.229353
vt 0.461127 0.229353
vt 0.501633 0.994633
vt 0.370397 0.994633
vt 0.302526 0.229353
vt 0.200740 0.994633
vt 1.001633 0.229353
vt 0.083334 0.229353
vt 0.042139 0.994633
vt 0.975385 0.994633
vt 0.870397 0.229352
vt 0.802526 0.994633
vt 0.700740 0.229353
vt 0.632870 0.994633
vt 0.500133 0.229353
vt 0.419932 0.994633
vt 0.302525 0.229353
vt 0.286063 0.994633
vt 0.124544 0.229353
vt 0.124406 0.994633
vt 0.001633 0.229353
vt 0.952616 0.229353
vt 0.001633 0.994633
vt 0.969479 0.994633
vt 0.786063 0.229353
vt 0.802526 0.994633
vt 0.624405 0.229353
vt 0.624544 0.994633
vt 0.469478 0.229353
vt 0.452616 0.994633
s 1
usemtl Material.001
f 2/4/1 1/1/2 5/7/3
f 4/6/4 3/5/5 1/2/2
f 6/8/6 5/7/3 3/5/5
f 8/12/7 7/9/8 11/15/9
f 7/10/8 8/11/7 9/13/10
f 9/13/10 10/14/11 11/15/9
f 14/19/12 13/18/13 18/24/14
f 13/17/13 15/21/15 16/22/16
f 17/23/17 18/24/14 16/22/16
f 20/27/18 21/28/19 19/25/20
f 21/29/19 23/31/21 22/30/22
f 24/32/23 19/25/20 22/30/22
f 26/34/24 27/35/25 25/33/26
f 28/36/27 29/38/28 27/35/25
f 29/39/28 31/41/29 30/40/30
f 30/40/30 32/42/31 33/43/32
f 33/43/32 34/44/33 35/45/34
f 37/47/35 25/33/26 35/45/34
f 38/48/36 39/50/37 44/56/38
f 42/54/39 43/55/40 40/52/41
f 44/56/38 43/55/40 42/54/39
f 47/59/42 48/60/43 46/58/44
f 49/61/45 50/63/46 48/60/43
f 50/62/46 51/65/47 52/66/48
f 52/66/48 53/67/49 54/68/50
f 54/68/50 55/69/51 56/70/52
f 56/70/52 58/72/53 57/71/54
f 59/73/55 46/58/44 57/71/54
f 61/75/56 62/77/57 60/74/58
f 62/76/57 63/79/59 64/80/60
f 64/80/60 65/81/61 66/82/62
f 66/82/62 67/83/63 68/84/64
f 69/85/65 60/74/58 68/84/64
f 71/87/66 72/88/67 70/86/68
f 72/88/67 75/92/69 74/90/70
f 74/91/70 77/95/71 76/94/72
f 76/94/72 79/97/73 78/96/74
f 79/97/73 80/98/75 78/96/74
f 81/99/76 70/86/68 80/98/75
f 2/3/1 4/6/4 1/2/2
f 4/6/4 6/8/6 3/5/5
f 6/8/6 2/4/1 5/7/3
f 9/13/10 8/11/7 10/14/11
f 11/15/9 10/14/11 12/16/77
f 12/16/77 8/12/7 11/15/9
f 14/19/12 15/20/15 13/18/13
f 16/22/16 15/21/15 17/23/17
f 17/23/17 14/19/12 18/24/14
f 21/29/19 20/26/18 23/31/21
f 22/30/22 23/31/21 24/32/23
f 24/32/23 20/27/18 19/25/20
f 26/34/24 28/36/27 27/35/25
f 29/39/28 28/37/27 31/41/29
f 30/40/30 31/41/29 32/42/31
f 33/43/32 32/42/31 34/44/33
f 35/45/34 34/44/33 36/46/78
f 37/47/35 26/34/24 25/33/26
f 38/48/36 40/51/41 39/50/37
f 38/49/36 41/53/79 40/52/41
f 41/53/79 42/54/39 40/52/41
f 44/56/38 45/57/80 43/55/40
f 44/56/38 39/50/37 45/57/80
f 47/59/42 49/61/45 48/60/43
f 49/61/45 51/64/47 50/63/46
f 52/66/48 51/65/47 53/67/49
f 54/68/50 53/67/49 55/69/51
f 56/70/52 55/69/51 58/72/53
f 58/72/53 59/73/55 57/71/54
f 59/73/55 47/59/42 46/58/44
f 61/75/56 63/78/59 62/77/57
f 64/80/60 63/79/59 65/81/61
f 66/82/62 65/81/61 67/83/63
f 68/84/64 67/83/63 69/85/65
f 69/85/65 61/75/56 60/74/58
f 36/46/78 37/47/35 35/45/34
f 71/87/66 73/89/81 72/88/67
f 72/88/67 73/89/81 75/92/69
f 74/91/70 75/93/69 77/95/71
f 76/94/72 77/95/71 79/97/73
f 79/97/73 81/99/76 80/98/75
f 81/99/76 71/87/66 70/86/68
