{
	"asset":{
		"generator":"Khronos glTF Blender I/O v3.5.30",
		"version":"2.0"
	},
	"scene":0,
	"scenes":[
		{
			"name":"Scene",
			"nodes":[
				7
			]
		}
	],
	"nodes":[
		{
			"name":"Spine.004",
			"rotation":[
				2.969714453732522e-16,
				0,
				-1.7763568394002505e-15,
				1
			],
			"scale":[
				1,
				0.9999999403953552,
				1
			],
			"translation":[
				-3.552713678800501e-15,
				0.355159729719162,
				1.0658141036401503e-14
			]
		},
		{
			"children":[
				0
			],
			"name":"Spine.003",
			"rotation":[
				2.9697057187052535e-16,
				0,
				-1.776357262916724e-15,
				1
			],
			"scale":[
				1,
				0.9999999403953552,
				1
			],
			"translation":[
				-3.5527130435257905e-15,
				0.4042319357395172,
				1.0658139342335608e-14
			]
		},
		{
			"children":[
				1
			],
			"name":"Spine.002",
			"rotation":[
				1.6581157833480548e-14,
				0,
				4.659646403942048e-15,
				1
			],
			"scale":[
				1,
				0.9999999403953552,
				1
			],
			"translation":[
				-3.437467434788265e-15,
				0.43980926275253296,
				1.0362263957596103e-14
			]
		},
		{
			"children":[
				2
			],
			"name":"Spine.001",
			"rotation":[
				-1.5178447654307092e-07,
				-3.7252888773764425e-08,
				-6.733505841793885e-08,
				1
			],
			"translation":[
				-2.1316282072803006e-14,
				0.442597359418869,
				3.552713678800501e-15
			]
		},
		{
			"children":[
				3
			],
			"name":"Spine.000",
			"rotation":[
				-0.6463593244552612,
				-0.6463592648506165,
				-0.28673964738845825,
				0.28673985600471497
			],
			"scale":[
				0.9999998807907104,
				0.9999999403953552,
				0.9999999403953552
			],
			"translation":[
				-0.8923991918563843,
				0,
				0
			]
		},
		{
			"name":"Head",
			"rotation":[
				-0.5,
				0.5,
				0.5,
				0.5
			],
			"translation":[
				-0.8923991918563843,
				0,
				0
			]
		},
		{
			"mesh":0,
			"name":"\u7acb\u65b9\u4f53",
			"skin":0
		},
		{
			"children":[
				6,
				4,
				5
			],
			"name":"Enemy"
		}
	],
	"animations":[
		{
			"channels":[
				{
					"sampler":0,
					"target":{
						"node":4,
						"path":"translation"
					}
				},
				{
					"sampler":1,
					"target":{
						"node":4,
						"path":"rotation"
					}
				},
				{
					"sampler":2,
					"target":{
						"node":4,
						"path":"scale"
					}
				},
				{
					"sampler":3,
					"target":{
						"node":3,
						"path":"translation"
					}
				},
				{
					"sampler":4,
					"target":{
						"node":3,
						"path":"rotation"
					}
				},
				{
					"sampler":5,
					"target":{
						"node":3,
						"path":"scale"
					}
				},
				{
					"sampler":6,
					"target":{
						"node":2,
						"path":"translation"
					}
				},
				{
					"sampler":7,
					"target":{
						"node":2,
						"path":"rotation"
					}
				},
				{
					"sampler":8,
					"target":{
						"node":2,
						"path":"scale"
					}
				},
				{
					"sampler":9,
					"target":{
						"node":1,
						"path":"translation"
					}
				},
				{
					"sampler":10,
					"target":{
						"node":1,
						"path":"rotation"
					}
				},
				{
					"sampler":11,
					"target":{
						"node":1,
						"path":"scale"
					}
				},
				{
					"sampler":12,
					"target":{
						"node":0,
						"path":"translation"
					}
				},
				{
					"sampler":13,
					"target":{
						"node":0,
						"path":"rotation"
					}
				},
				{
					"sampler":14,
					"target":{
						"node":0,
						"path":"scale"
					}
				},
				{
					"sampler":15,
					"target":{
						"node":5,
						"path":"translation"
					}
				},
				{
					"sampler":16,
					"target":{
						"node":5,
						"path":"rotation"
					}
				},
				{
					"sampler":17,
					"target":{
						"node":5,
						"path":"scale"
					}
				}
			],
			"name":"00_Idle",
			"samplers":[
				{
					"input":8,
					"interpolation":"LINEAR",
					"output":9
				},
				{
					"input":10,
					"interpolation":"LINEAR",
					"output":11
				},
				{
					"input":8,
					"interpolation":"LINEAR",
					"output":12
				},
				{
					"input":8,
					"interpolation":"LINEAR",
					"output":13
				},
				{
					"input":10,
					"interpolation":"LINEAR",
					"output":14
				},
				{
					"input":8,
					"interpolation":"LINEAR",
					"output":15
				},
				{
					"input":8,
					"interpolation":"LINEAR",
					"output":16
				},
				{
					"input":10,
					"interpolation":"LINEAR",
					"output":17
				},
				{
					"input":8,
					"interpolation":"LINEAR",
					"output":18
				},
				{
					"input":8,
					"interpolation":"LINEAR",
					"output":19
				},
				{
					"input":10,
					"interpolation":"LINEAR",
					"output":20
				},
				{
					"input":8,
					"interpolation":"LINEAR",
					"output":21
				},
				{
					"input":8,
					"interpolation":"LINEAR",
					"output":22
				},
				{
					"input":10,
					"interpolation":"LINEAR",
					"output":23
				},
				{
					"input":8,
					"interpolation":"LINEAR",
					"output":24
				},
				{
					"input":8,
					"interpolation":"LINEAR",
					"output":25
				},
				{
					"input":10,
					"interpolation":"LINEAR",
					"output":26
				},
				{
					"input":8,
					"interpolation":"LINEAR",
					"output":27
				}
			]
		}
	],
	"materials":[
		{
			"doubleSided":true,
			"name":"Material",
			"pbrMetallicRoughness":{
				"baseColorTexture":{
					"index":0
				},
				"metallicFactor":0,
				"roughnessFactor":0.5
			}
		}
	],
	"meshes":[
		{
			"name":"\u7acb\u65b9\u4f53",
			"primitives":[
				{
					"attributes":{
						"COLOR_0":0,
						"POSITION":1,
						"TEXCOORD_0":2,
						"NORMAL":3,
						"JOINTS_0":4,
						"WEIGHTS_0":5
					},
					"indices":6,
					"material":0
				}
			]
		}
	],
	"textures":[
		{
			"sampler":0,
			"source":0
		}
	],
	"images":[
		{
			"mimeType":"image/png",
			"name":"EnemyTex",
			"uri":"EnemyTex.png"
		}
	],
	"skins":[
		{
			"inverseBindMatrices":7,
			"joints":[
				4,
				3,
				2,
				1,
				0,
				5
			],
			"name":"Enemy"
		}
	],
	"accessors":[
		{
			"bufferView":0,
			"componentType":5123,
			"count":1567,
			"normalized":true,
			"type":"VEC4"
		},
		{
			"bufferView":1,
			"componentType":5126,
			"count":1567,
			"max":[
				1.398719072341919,
				0.8343772888183594,
				0.5931234955787659
			],
			"min":[
				-1.8379662036895752,
				-0.8343772888183594,
				-0.5931234955787659
			],
			"type":"VEC3"
		},
		{
			"bufferView":2,
			"componentType":5126,
			"count":1567,
			"type":"VEC2"
		},
		{
			"bufferView":3,
			"componentType":5126,
			"count":1567,
			"type":"VEC3"
		},
		{
			"bufferView":4,
			"componentType":5121,
			"count":1567,
			"type":"VEC4"
		},
		{
			"bufferView":5,
			"componentType":5126,
			"count":1567,
			"type":"VEC4"
		},
		{
			"bufferView":6,
			"componentType":5123,
			"count":2322,
			"type":"SCALAR"
		},
		{
			"bufferView":7,
			"componentType":5126,
			"count":6,
			"type":"MAT4"
		},
		{
			"bufferView":8,
			"componentType":5126,
			"count":2,
			"max":[
				1
			],
			"min":[
				0.016666666666666666
			],
			"type":"SCALAR"
		},
		{
			"bufferView":9,
			"componentType":5126,
			"count":2,
			"type":"VEC3"
		},
		{
			"bufferView":10,
			"componentType":5126,
			"count":60,
			"max":[
				1
			],
			"min":[
				0.016666666666666666
			],
			"type":"SCALAR"
		},
		{
			"bufferView":11,
			"componentType":5126,
			"count":60,
			"type":"VEC4"
		},
		{
			"bufferView":12,
			"componentType":5126,
			"count":2,
			"type":"VEC3"
		},
		{
			"bufferView":13,
			"componentType":5126,
			"count":2,
			"type":"VEC3"
		},
		{
			"bufferView":14,
			"componentType":5126,
			"count":60,
			"type":"VEC4"
		},
		{
			"bufferView":15,
			"componentType":5126,
			"count":2,
			"type":"VEC3"
		},
		{
			"bufferView":16,
			"componentType":5126,
			"count":2,
			"type":"VEC3"
		},
		{
			"bufferView":17,
			"componentType":5126,
			"count":60,
			"type":"VEC4"
		},
		{
			"bufferView":18,
			"componentType":5126,
			"count":2,
			"type":"VEC3"
		},
		{
			"bufferView":19,
			"componentType":5126,
			"count":2,
			"type":"VEC3"
		},
		{
			"bufferView":20,
			"componentType":5126,
			"count":60,
			"type":"VEC4"
		},
		{
			"bufferView":21,
			"componentType":5126,
			"count":2,
			"type":"VEC3"
		},
		{
			"bufferView":22,
			"componentType":5126,
			"count":2,
			"type":"VEC3"
		},
		{
			"bufferView":23,
			"componentType":5126,
			"count":60,
			"type":"VEC4"
		},
		{
			"bufferView":24,
			"componentType":5126,
			"count":2,
			"type":"VEC3"
		},
		{
			"bufferView":25,
			"componentType":5126,
			"count":2,
			"type":"VEC3"
		},
		{
			"bufferView":26,
			"componentType":5126,
			"count":60,
			"type":"VEC4"
		},
		{
			"bufferView":27,
			"componentType":5126,
			"count":2,
			"type":"VEC3"
		}
	],
	"bufferViews":[
		{
			"buffer":0,
			"byteLength":12536,
			"byteOffset":0,
			"target":34962
		},
		{
			"buffer":0,
			"byteLength":18804,
			"byteOffset":12536,
			"target":34962
		},
		{
			"buffer":0,
			"byteLength":12536,
			"byteOffset":31340,
			"target":34962
		},
		{
			"buffer":0,
			"byteLength":18804,
			"byteOffset":43876,
			"target":34962
		},
		{
			"buffer":0,
			"byteLength":6268,
			"byteOffset":62680,
			"target":34962
		},
		{
			"buffer":0,
			"byteLength":25072,
			"byteOffset":68948,
			"target":34962
		},
		{
			"buffer":0,
			"byteLength":4644,
			"byteOffset":94020,
			"target":34963
		},
		{
			"buffer":0,
			"byteLength":384,
			"byteOffset":98664
		},
		{
			"buffer":0,
			"byteLength":8,
			"byteOffset":99048
		},
		{
			"buffer":0,
			"byteLength":24,
			"byteOffset":99056
		},
		{
			"buffer":0,
			"byteLength":240,
			"byteOffset":99080
		},
		{
			"buffer":0,
			"byteLength":960,
			"byteOffset":99320
		},
		{
			"buffer":0,
			"byteLength":24,
			"byteOffset":100280
		},
		{
			"buffer":0,
			"byteLength":24,
			"byteOffset":100304
		},
		{
			"buffer":0,
			"byteLength":960,
			"byteOffset":100328
		},
		{
			"buffer":0,
			"byteLength":24,
			"byteOffset":101288
		},
		{
			"buffer":0,
			"byteLength":24,
			"byteOffset":101312
		},
		{
			"buffer":0,
			"byteLength":960,
			"byteOffset":101336
		},
		{
			"buffer":0,
			"byteLength":24,
			"byteOffset":102296
		},
		{
			"buffer":0,
			"byteLength":24,
			"byteOffset":102320
		},
		{
			"buffer":0,
			"byteLength":960,
			"byteOffset":102344
		},
		{
			"buffer":0,
			"byteLength":24,
			"byteOffset":103304
		},
		{
			"buffer":0,
			"byteLength":24,
			"byteOffset":103328
		},
		{
			"buffer":0,
			"byteLength":960,
			"byteOffset":103352
		},
		{
			"buffer":0,
			"byteLength":24,
			"byteOffset":104312
		},
		{
			"buffer":0,
			"byteLength":24,
			"byteOffset":104336
		},
		{
			"buffer":0,
			"byteLength":960,
			"byteOffset":104360
		},
		{
			"buffer":0,
			"byteLength":24,
			"byteOffset":105320
		}
	],
	"samplers":[
		{
			"magFilter":9729,
			"minFilter":9987
		}
	],
	"buffers":[
		{
			"byteLength":105344,
			"uri":"Enemy.bin"
		}
	]
}
