{
	"asset":{
		"generator":"Khronos glTF Blender I/O v3.5.30",
		"version":"2.0"
	},
	"scene":0,
	"scenes":[
		{
			"name":"Scene",
			"nodes":[
				7
			]
		}
	],
	"nodes":[
		{
			"name":"Bone.005",
			"translation":[
				0,
				0.561790943145752,
				0
			]
		},
		{
			"children":[
				0
			],
			"name":"Bone.004",
			"translation":[
				0,
				0.5169533491134644,
				0
			]
		},
		{
			"children":[
				1
			],
			"name":"Bone.003",
			"rotation":[
				-1.4551915228366852e-11,
				-8.971372885475698e-35,
				6.1650805029342844e-24,
				1
			],
			"translation":[
				5.469948895028012e-24,
				0.6000000238418579,
				8.640140686244635e-12
			]
		},
		{
			"children":[
				2
			],
			"name":"Bone.002",
			"rotation":[
				-0.00024142922484315932,
				1.1104908987947257e-16,
				1.1104908987947257e-16,
				1
			],
			"translation":[
				-1.3002245253567904e-23,
				0.5462297797203064,
				2.9103830456733704e-11
			]
		},
		{
			"children":[
				3
			],
			"name":"Bone.001",
			"rotation":[
				0.00024142922484315932,
				-1.1104908987947257e-16,
				-1.1104908987947257e-16,
				1
			],
			"translation":[
				0,
				0.5568972826004028,
				0
			]
		},
		{
			"children":[
				4
			],
			"name":"Bone"
		},
		{
			"mesh":0,
			"name":"Cube",
			"skin":0
		},
		{
			"children":[
				6,
				5
			],
			"name":"\u30a2\u30fc\u30de\u30c1\u30e5\u30a2"
		}
	],
	"animations":[
		{
			"channels":[
				{
					"sampler":0,
					"target":{
						"node":5,
						"path":"translation"
					}
				},
				{
					"sampler":1,
					"target":{
						"node":5,
						"path":"rotation"
					}
				},
				{
					"sampler":2,
					"target":{
						"node":5,
						"path":"scale"
					}
				},
				{
					"sampler":3,
					"target":{
						"node":4,
						"path":"translation"
					}
				},
				{
					"sampler":4,
					"target":{
						"node":4,
						"path":"rotation"
					}
				},
				{
					"sampler":5,
					"target":{
						"node":4,
						"path":"scale"
					}
				},
				{
					"sampler":6,
					"target":{
						"node":3,
						"path":"translation"
					}
				},
				{
					"sampler":7,
					"target":{
						"node":3,
						"path":"rotation"
					}
				},
				{
					"sampler":8,
					"target":{
						"node":3,
						"path":"scale"
					}
				},
				{
					"sampler":9,
					"target":{
						"node":2,
						"path":"translation"
					}
				},
				{
					"sampler":10,
					"target":{
						"node":2,
						"path":"rotation"
					}
				},
				{
					"sampler":11,
					"target":{
						"node":2,
						"path":"scale"
					}
				},
				{
					"sampler":12,
					"target":{
						"node":1,
						"path":"translation"
					}
				},
				{
					"sampler":13,
					"target":{
						"node":1,
						"path":"rotation"
					}
				},
				{
					"sampler":14,
					"target":{
						"node":1,
						"path":"scale"
					}
				},
				{
					"sampler":15,
					"target":{
						"node":0,
						"path":"translation"
					}
				},
				{
					"sampler":16,
					"target":{
						"node":0,
						"path":"rotation"
					}
				},
				{
					"sampler":17,
					"target":{
						"node":0,
						"path":"scale"
					}
				}
			],
			"name":"Action",
			"samplers":[
				{
					"input":7,
					"interpolation":"LINEAR",
					"output":8
				},
				{
					"input":7,
					"interpolation":"LINEAR",
					"output":9
				},
				{
					"input":7,
					"interpolation":"LINEAR",
					"output":10
				},
				{
					"input":7,
					"interpolation":"LINEAR",
					"output":11
				},
				{
					"input":7,
					"interpolation":"LINEAR",
					"output":12
				},
				{
					"input":7,
					"interpolation":"LINEAR",
					"output":13
				},
				{
					"input":7,
					"interpolation":"LINEAR",
					"output":14
				},
				{
					"input":7,
					"interpolation":"LINEAR",
					"output":15
				},
				{
					"input":7,
					"interpolation":"LINEAR",
					"output":16
				},
				{
					"input":7,
					"interpolation":"LINEAR",
					"output":17
				},
				{
					"input":7,
					"interpolation":"LINEAR",
					"output":18
				},
				{
					"input":7,
					"interpolation":"LINEAR",
					"output":19
				},
				{
					"input":7,
					"interpolation":"LINEAR",
					"output":20
				},
				{
					"input":7,
					"interpolation":"LINEAR",
					"output":21
				},
				{
					"input":7,
					"interpolation":"LINEAR",
					"output":22
				},
				{
					"input":7,
					"interpolation":"LINEAR",
					"output":23
				},
				{
					"input":7,
					"interpolation":"LINEAR",
					"output":24
				},
				{
					"input":7,
					"interpolation":"LINEAR",
					"output":25
				}
			]
		}
	],
	"materials":[
		{
			"doubleSided":true,
			"name":"Material",
			"pbrMetallicRoughness":{
				"baseColorTexture":{
					"index":0
				},
				"metallicFactor":0,
				"roughnessFactor":0.5
			}
		}
	],
	"meshes":[
		{
			"name":"Cube",
			"primitives":[
				{
					"attributes":{
						"POSITION":0,
						"TEXCOORD_0":1,
						"NORMAL":2,
						"JOINTS_0":3,
						"WEIGHTS_0":4
					},
					"indices":5,
					"material":0
				}
			]
		}
	],
	"textures":[
		{
			"sampler":0,
			"source":0
		}
	],
	"images":[
		{
			"mimeType":"image/png",
			"name":"4x4",
			"uri":"4x4.png"
		}
	],
	"skins":[
		{
			"inverseBindMatrices":6,
			"joints":[
				5,
				4,
				3,
				2,
				1,
				0
			],
			"name":"\u30a2\u30fc\u30de\u30c1\u30e5\u30a2"
		}
	],
	"accessors":[
		{
			"bufferView":0,
			"componentType":5126,
			"count":64,
			"max":[
				0.09834885597229004,
				3.328953266143799,
				0.09834885597229004
			],
			"min":[
				-0.09834885597229004,
				-0.0005166530609130859,
				-0.09834885597229004
			],
			"type":"VEC3"
		},
		{
			"bufferView":1,
			"componentType":5126,
			"count":64,
			"type":"VEC2"
		},
		{
			"bufferView":2,
			"componentType":5126,
			"count":64,
			"type":"VEC3"
		},
		{
			"bufferView":3,
			"componentType":5121,
			"count":64,
			"type":"VEC4"
		},
		{
			"bufferView":4,
			"componentType":5126,
			"count":64,
			"type":"VEC4"
		},
		{
			"bufferView":5,
			"componentType":5123,
			"count":156,
			"type":"SCALAR"
		},
		{
			"bufferView":6,
			"componentType":5126,
			"count":6,
			"type":"MAT4"
		},
		{
			"bufferView":7,
			"componentType":5126,
			"count":60,
			"max":[
				1
			],
			"min":[
				0.016666666666666666
			],
			"type":"SCALAR"
		},
		{
			"bufferView":8,
			"componentType":5126,
			"count":60,
			"type":"VEC3"
		},
		{
			"bufferView":9,
			"componentType":5126,
			"count":60,
			"type":"VEC4"
		},
		{
			"bufferView":10,
			"componentType":5126,
			"count":60,
			"type":"VEC3"
		},
		{
			"bufferView":11,
			"componentType":5126,
			"count":60,
			"type":"VEC3"
		},
		{
			"bufferView":12,
			"componentType":5126,
			"count":60,
			"type":"VEC4"
		},
		{
			"bufferView":13,
			"componentType":5126,
			"count":60,
			"type":"VEC3"
		},
		{
			"bufferView":14,
			"componentType":5126,
			"count":60,
			"type":"VEC3"
		},
		{
			"bufferView":15,
			"componentType":5126,
			"count":60,
			"type":"VEC4"
		},
		{
			"bufferView":16,
			"componentType":5126,
			"count":60,
			"type":"VEC3"
		},
		{
			"bufferView":17,
			"componentType":5126,
			"count":60,
			"type":"VEC3"
		},
		{
			"bufferView":18,
			"componentType":5126,
			"count":60,
			"type":"VEC4"
		},
		{
			"bufferView":19,
			"componentType":5126,
			"count":60,
			"type":"VEC3"
		},
		{
			"bufferView":20,
			"componentType":5126,
			"count":60,
			"type":"VEC3"
		},
		{
			"bufferView":21,
			"componentType":5126,
			"count":60,
			"type":"VEC4"
		},
		{
			"bufferView":22,
			"componentType":5126,
			"count":60,
			"type":"VEC3"
		},
		{
			"bufferView":23,
			"componentType":5126,
			"count":60,
			"type":"VEC3"
		},
		{
			"bufferView":24,
			"componentType":5126,
			"count":60,
			"type":"VEC4"
		},
		{
			"bufferView":25,
			"componentType":5126,
			"count":60,
			"type":"VEC3"
		}
	],
	"bufferViews":[
		{
			"buffer":0,
			"byteLength":768,
			"byteOffset":0,
			"target":34962
		},
		{
			"buffer":0,
			"byteLength":512,
			"byteOffset":768,
			"target":34962
		},
		{
			"buffer":0,
			"byteLength":768,
			"byteOffset":1280,
			"target":34962
		},
		{
			"buffer":0,
			"byteLength":256,
			"byteOffset":2048,
			"target":34962
		},
		{
			"buffer":0,
			"byteLength":1024,
			"byteOffset":2304,
			"target":34962
		},
		{
			"buffer":0,
			"byteLength":312,
			"byteOffset":3328,
			"target":34963
		},
		{
			"buffer":0,
			"byteLength":384,
			"byteOffset":3640
		},
		{
			"buffer":0,
			"byteLength":240,
			"byteOffset":4024
		},
		{
			"buffer":0,
			"byteLength":720,
			"byteOffset":4264
		},
		{
			"buffer":0,
			"byteLength":960,
			"byteOffset":4984
		},
		{
			"buffer":0,
			"byteLength":720,
			"byteOffset":5944
		},
		{
			"buffer":0,
			"byteLength":720,
			"byteOffset":6664
		},
		{
			"buffer":0,
			"byteLength":960,
			"byteOffset":7384
		},
		{
			"buffer":0,
			"byteLength":720,
			"byteOffset":8344
		},
		{
			"buffer":0,
			"byteLength":720,
			"byteOffset":9064
		},
		{
			"buffer":0,
			"byteLength":960,
			"byteOffset":9784
		},
		{
			"buffer":0,
			"byteLength":720,
			"byteOffset":10744
		},
		{
			"buffer":0,
			"byteLength":720,
			"byteOffset":11464
		},
		{
			"buffer":0,
			"byteLength":960,
			"byteOffset":12184
		},
		{
			"buffer":0,
			"byteLength":720,
			"byteOffset":13144
		},
		{
			"buffer":0,
			"byteLength":720,
			"byteOffset":13864
		},
		{
			"buffer":0,
			"byteLength":960,
			"byteOffset":14584
		},
		{
			"buffer":0,
			"byteLength":720,
			"byteOffset":15544
		},
		{
			"buffer":0,
			"byteLength":720,
			"byteOffset":16264
		},
		{
			"buffer":0,
			"byteLength":960,
			"byteOffset":16984
		},
		{
			"buffer":0,
			"byteLength":720,
			"byteOffset":17944
		}
	],
	"samplers":[
		{
			"magFilter":9729,
			"minFilter":9987
		}
	],
	"buffers":[
		{
			"byteLength":18664,
			"uri":"Spear.bin"
		}
	]
}
