{
	"asset":{
		"generator":"Khronos glTF Blender I/O v3.5.30",
		"version":"2.0"
	},
	"scene":0,
	"scenes":[
		{
			"name":"Scene",
			"nodes":[
				0
			]
		}
	],
	"nodes":[
		{
			"mesh":0,
			"name":"SpearModel"
		}
	],
	"materials":[
		{
			"doubleSided":true,
			"name":"Spear.001",
			"pbrMetallicRoughness":{
				"baseColorTexture":{
					"index":0
				},
				"metallicFactor":0,
				"roughnessFactor":0.5
			}
		}
	],
	"meshes":[
		{
			"name":"\u5186\u67f1.001",
			"primitives":[
				{
					"attributes":{
						"COLOR_0":0,
						"POSITION":1,
						"TEXCOORD_0":2,
						"NORMAL":3
					},
					"indices":4,
					"material":0
				}
			]
		}
	],
	"textures":[
		{
			"sampler":0,
			"source":0
		}
	],
	"images":[
		{
			"mimeType":"image/png",
			"name":"BambooSpearTex",
			"uri":"BambooSpearTex.png"
		}
	],
	"accessors":[
		{
			"bufferView":0,
			"componentType":5123,
			"count":930,
			"normalized":true,
			"type":"VEC4"
		},
		{
			"bufferView":1,
			"componentType":5126,
			"count":930,
			"max":[
				0.5648854374885559,
				2.3085360527038574,
				0.5606759190559387
			],
			"min":[
				-0.5679804682731628,
				-2.0033202171325684,
				-0.5721905827522278
			],
			"type":"VEC3"
		},
		{
			"bufferView":2,
			"componentType":5126,
			"count":930,
			"type":"VEC2"
		},
		{
			"bufferView":3,
			"componentType":5126,
			"count":930,
			"type":"VEC3"
		},
		{
			"bufferView":4,
			"componentType":5123,
			"count":4182,
			"type":"SCALAR"
		}
	],
	"bufferViews":[
		{
			"buffer":0,
			"byteLength":7440,
			"byteOffset":0,
			"target":34962
		},
		{
			"buffer":0,
			"byteLength":11160,
			"byteOffset":7440,
			"target":34962
		},
		{
			"buffer":0,
			"byteLength":7440,
			"byteOffset":18600,
			"target":34962
		},
		{
			"buffer":0,
			"byteLength":11160,
			"byteOffset":26040,
			"target":34962
		},
		{
			"buffer":0,
			"byteLength":8364,
			"byteOffset":37200,
			"target":34963
		}
	],
	"samplers":[
		{
			"magFilter":9729,
			"minFilter":9987
		}
	],
	"buffers":[
		{
			"byteLength":45564,
			"uri":"Goal.bin"
		}
	]
}
