{
	"asset":{
		"generator":"Khronos glTF Blender I/O v3.5.30",
		"version":"2.0"
	},
	"scene":0,
	"scenes":[
		{
			"name":"Scene",
			"nodes":[
				14
			]
		}
	],
	"nodes":[
		{
			"name":"PonyTail.012",
			"rotation":[
				-0.05366026237607002,
				-3.824677323439017e-14,
				2.089607065158816e-08,
				0.998559296131134
			],
			"scale":[
				1,
				1.0000001192092896,
				1
			],
			"translation":[
				6.2221812107527384e-15,
				0.2207728922367096,
				-5.960464477539063e-08
			]
		},
		{
			"children":[
				0
			],
			"name":"PonyTail.011",
			"rotation":[
				-0.11118894070386887,
				3.887682683374402e-14,
				4.3298545193692917e-08,
				0.9937992691993713
			],
			"scale":[
				1,
				0.9999999403953552,
				0.9999999403953552
			],
			"translation":[
				-7.988673504449265e-15,
				0.1430836170911789,
				4.470348358154297e-08
			]
		},
		{
			"children":[
				1
			],
			"name":"PonyTail.010",
			"rotation":[
				-0.05692846328020096,
				2.4242176124042274e-14,
				2.2168757496388025e-08,
				0.9983782768249512
			],
			"translation":[
				-1.6934702609400915e-14,
				0.13895340263843536,
				-2.0489096641540527e-08
			]
		},
		{
			"children":[
				2
			],
			"name":"PonyTail.009",
			"rotation":[
				-0.026390956714749336,
				-2.4572242840730646e-14,
				1.0277016571080821e-08,
				0.9996517300605774
			],
			"scale":[
				1,
				0.9999998807907104,
				0.9999999403953552
			],
			"translation":[
				1.2819273603520333e-14,
				0.13346698880195618,
				3.725290298461914e-09
			]
		},
		{
			"children":[
				3
			],
			"name":"PonyTail.008",
			"rotation":[
				-0.04403995722532272,
				2.42819324624546e-14,
				1.7149785591641376e-08,
				0.9990297555923462
			],
			"scale":[
				1,
				0.9999999403953552,
				0.9999999403953552
			],
			"translation":[
				1.2345103712614429e-14,
				0.12543678283691406,
				7.450580596923828e-09
			]
		},
		{
			"children":[
				4
			],
			"name":"PonyTail.007",
			"rotation":[
				-0.03494938462972641,
				2.824467615629607e-14,
				1.3609780857848364e-08,
				0.999389111995697
			],
			"scale":[
				1,
				1,
				1.0000001192092896
			],
			"translation":[
				-2.088571489692291e-15,
				0.12379151582717896,
				2.9802322387695312e-08
			]
		},
		{
			"children":[
				5
			],
			"name":"PonyTail.006",
			"rotation":[
				-0.03930464759469032,
				-1.1999681135625283e-14,
				1.530579396558096e-08,
				0.9992272853851318
			],
			"translation":[
				2.7652525587265955e-14,
				0.12413978576660156,
				5.960464477539063e-08
			]
		},
		{
			"children":[
				6
			],
			"name":"PonyTail.005",
			"rotation":[
				-0.047864846885204315,
				-4.445987848711308e-15,
				1.8639257248764807e-08,
				0.998853862285614
			],
			"scale":[
				1,
				0.9999999403953552,
				1
			],
			"translation":[
				-3.8808648304786576e-15,
				0.12133577466011047,
				0
			]
		},
		{
			"children":[
				7
			],
			"name":"PonyTail.004",
			"rotation":[
				-0.09829744696617126,
				-4.99800396382144e-14,
				3.827841510428698e-08,
				0.9951570630073547
			],
			"translation":[
				6.8293484033882506e-15,
				0.11491061747074127,
				-2.9802322387695312e-08
			]
		},
		{
			"children":[
				8
			],
			"name":"PonyTail.003",
			"rotation":[
				-0.145411416888237,
				-8.303910537703699e-14,
				5.6625253819220234e-08,
				0.9893712997436523
			],
			"scale":[
				1,
				1,
				0.9999999403953552
			],
			"translation":[
				7.71752724660485e-15,
				0.11274974048137665,
				-3.818422555923462e-08
			]
		},
		{
			"children":[
				9
			],
			"name":"PonyTail.002",
			"rotation":[
				-0.3214494287967682,
				-1.4298234418674838e-07,
				7.663931000934099e-08,
				0.9469267725944519
			],
			"translation":[
				1.8755299979636257e-16,
				0.13550519943237305,
				0
			]
		},
		{
			"children":[
				10
			],
			"name":"PonyTail.001",
			"rotation":[
				-6.454008172340764e-08,
				-0.973482608795166,
				-0.22876106202602386,
				1.8954405334170588e-07
			],
			"scale":[
				1,
				0.9999997615814209,
				0.9999999403953552
			],
			"translation":[
				0,
				0.2159895896911621,
				0
			]
		},
		{
			"children":[
				11
			],
			"name":"PonyTail.000",
			"rotation":[
				0.5374507308006287,
				-2.0105692044580792e-07,
				-1.281380832551804e-07,
				0.843295156955719
			],
			"scale":[
				1,
				0.9999999403953552,
				0.999998927116394
			]
		},
		{
			"mesh":0,
			"name":"C_PonyTail",
			"skin":0
		},
		{
			"children":[
				13,
				12
			],
			"name":"PonyTail"
		}
	],
	"materials":[
		{
			"doubleSided":true,
			"name":"Hair",
			"pbrMetallicRoughness":{
				"baseColorTexture":{
					"index":0
				},
				"metallicFactor":0,
				"roughnessFactor":0.5
			}
		}
	],
	"meshes":[
		{
			"name":"NURBS\u30d1\u30b9.007",
			"primitives":[
				{
					"attributes":{
						"POSITION":0,
						"TEXCOORD_0":1,
						"NORMAL":2,
						"JOINTS_0":3,
						"WEIGHTS_0":4
					},
					"indices":5,
					"material":0
				}
			]
		}
	],
	"textures":[
		{
			"sampler":0,
			"source":0
		}
	],
	"images":[
		{
			"mimeType":"image/png",
			"name":"HairTex",
			"uri":"HairTex.png"
		}
	],
	"skins":[
		{
			"inverseBindMatrices":6,
			"joints":[
				12,
				11,
				10,
				9,
				8,
				7,
				6,
				5,
				4,
				3,
				2,
				1,
				0
			],
			"name":"PonyTail"
		}
	],
	"accessors":[
		{
			"bufferView":0,
			"componentType":5126,
			"count":182,
			"max":[
				0.17799434065818787,
				0.22681331634521484,
				0.8055098056793213
			],
			"min":[
				-0.17799437046051025,
				-1.4901208877563477,
				-0.023851575329899788
			],
			"type":"VEC3"
		},
		{
			"bufferView":1,
			"componentType":5126,
			"count":182,
			"type":"VEC2"
		},
		{
			"bufferView":2,
			"componentType":5126,
			"count":182,
			"type":"VEC3"
		},
		{
			"bufferView":3,
			"componentType":5121,
			"count":182,
			"type":"VEC4"
		},
		{
			"bufferView":4,
			"componentType":5126,
			"count":182,
			"type":"VEC4"
		},
		{
			"bufferView":5,
			"componentType":5123,
			"count":936,
			"type":"SCALAR"
		},
		{
			"bufferView":6,
			"componentType":5126,
			"count":13,
			"type":"MAT4"
		}
	],
	"bufferViews":[
		{
			"buffer":0,
			"byteLength":2184,
			"byteOffset":0,
			"target":34962
		},
		{
			"buffer":0,
			"byteLength":1456,
			"byteOffset":2184,
			"target":34962
		},
		{
			"buffer":0,
			"byteLength":2184,
			"byteOffset":3640,
			"target":34962
		},
		{
			"buffer":0,
			"byteLength":728,
			"byteOffset":5824,
			"target":34962
		},
		{
			"buffer":0,
			"byteLength":2912,
			"byteOffset":6552,
			"target":34962
		},
		{
			"buffer":0,
			"byteLength":1872,
			"byteOffset":9464,
			"target":34963
		},
		{
			"buffer":0,
			"byteLength":832,
			"byteOffset":11336
		}
	],
	"samplers":[
		{
			"magFilter":9729,
			"minFilter":9987
		}
	],
	"buffers":[
		{
			"byteLength":12168,
			"uri":"PonyTail.bin"
		}
	]
}
